<?xml version="1.0" encoding="UTF-8"?>
<!DOCTYPE svg PUBLIC "-//W3C//DTD SVG 1.1//EN" "http://www.w3.org/Graphics/SVG/1.1/DTD/svg11.dtd">
<svg xmlns="http://www.w3.org/2000/svg" version="1.1" width="1877px" height="1139px" style="shape-rendering:geometricPrecision; text-rendering:geometricPrecision; image-rendering:optimizeQuality; fill-rule:evenodd; clip-rule:evenodd" xmlns:xlink="http://www.w3.org/1999/xlink">
<g><path style="opacity:0.855" fill="#95be0d" d="M 1510.5,-0.5 C 1511.17,-0.5 1511.83,-0.5 1512.5,-0.5C 1530.14,14.9685 1547.97,30.3018 1566,45.5C 1567.33,36.1667 1568.67,26.8333 1570,17.5C 1570.71,26.861 1571.54,36.1943 1572.5,45.5C 1572.59,46.4959 1572.25,47.3292 1571.5,48C 1574.98,50.7992 1577.65,54.1326 1579.5,58C 1577.65,61.8674 1574.98,65.2008 1571.5,68C 1572.25,68.6708 1572.59,69.5041 1572.5,70.5C 1571.61,79.8325 1570.61,89.1658 1569.5,98.5C 1568.29,89.5383 1567.46,80.5383 1567,71.5C 1566.59,71.0426 1566.09,70.7093 1565.5,70.5C 1549.02,84.48 1532.69,98.6466 1516.5,113C 1514.63,114.602 1512.63,115.602 1510.5,116C 1526.17,97.6667 1541.83,79.3333 1557.5,61C 1547.83,60 1538.17,59 1528.5,58C 1538.19,56.9981 1547.86,55.8315 1557.5,54.5C 1541.44,36.4414 1525.77,18.1081 1510.5,-0.5 Z"/></g>
<g><path style="opacity:0.842" fill="#318924" d="M 1626.5,-0.5 C 1627.17,-0.5 1627.83,-0.5 1628.5,-0.5C 1613.04,18.1273 1597.38,36.6273 1581.5,55C 1591.21,55.6951 1600.87,56.6951 1610.5,58C 1600.83,58.945 1591.16,59.945 1581.5,61C 1597.17,79.3333 1612.83,97.6667 1628.5,116C 1626.02,115.253 1623.69,113.919 1621.5,112C 1605.57,97.5579 1589.23,83.7245 1572.5,70.5C 1572.59,69.5041 1572.25,68.6708 1571.5,68C 1574.98,65.2008 1577.65,61.8674 1579.5,58C 1577.65,54.1326 1574.98,50.7992 1571.5,48C 1572.25,47.3292 1572.59,46.4959 1572.5,45.5C 1590.82,30.5122 1608.82,15.1789 1626.5,-0.5 Z"/></g>
<g><path style="opacity:0.968" fill="#00afe5" d="M 1876.5,98.5 C 1876.5,99.1667 1876.5,99.8333 1876.5,100.5C 1870.3,117.566 1862.47,133.9 1853,149.5C 1849.62,153.759 1846.12,157.926 1842.5,162C 1843.17,162.667 1843.83,162.667 1844.5,162C 1856.22,153.647 1866.89,144.147 1876.5,133.5C 1876.5,135.167 1876.5,136.833 1876.5,138.5C 1858.46,195.36 1825.79,241.86 1778.5,278C 1771.67,282.584 1764.67,286.917 1757.5,291C 1760.92,290.639 1764.26,289.639 1767.5,288C 1781.98,281.263 1795.98,273.763 1809.5,265.5C 1809.83,265.667 1810.17,265.833 1810.5,266C 1792.2,286.659 1770.2,302.159 1744.5,312.5C 1735.68,278.203 1727.01,243.869 1718.5,209.5C 1756.93,189.684 1791.43,164.35 1822,133.5C 1835.67,118.836 1846.34,102.169 1854,83.5C 1856.15,76.9153 1857.98,70.2486 1859.5,63.5C 1857.85,85.9632 1851.01,106.963 1839,126.5C 1833.55,134.945 1827.72,143.112 1821.5,151C 1822.17,151.667 1822.83,151.667 1823.5,151C 1843.7,135.971 1861.36,118.471 1876.5,98.5 Z"/></g>
<g><path style="opacity:0.989" fill="#cf061b" d="M 1429.5,101.5 C 1427.22,102.651 1424.89,103.651 1422.5,104.5C 1339.13,124.508 1255.8,144.841 1172.5,165.5C 1166.79,166.024 1161.79,168.191 1157.5,172C 1151.29,178.952 1145.95,186.452 1141.5,194.5C 1133.88,196.656 1126.21,198.656 1118.5,200.5C 1116.9,192.007 1115.57,183.34 1114.5,174.5C 1186.58,154.149 1258.58,133.815 1330.5,113.5C 1363.33,109.221 1396.33,105.221 1429.5,101.5 Z"/></g>
<g><path style="opacity:1" fill="#e85c3e" d="M 1422.5,104.5 C 1347.44,129.297 1272.44,154.297 1197.5,179.5C 1193.77,176.955 1190.1,174.122 1186.5,171C 1181.68,169.234 1177.02,167.401 1172.5,165.5C 1255.8,144.841 1339.13,124.508 1422.5,104.5 Z"/></g>
<g><path style="opacity:0.986" fill="#d7021a" d="M 1330.5,113.5 C 1258.58,133.815 1186.58,154.149 1114.5,174.5C 1113.71,171.885 1113.04,169.218 1112.5,166.5C 1167.92,150.815 1223.25,135.149 1278.5,119.5C 1295.62,116.861 1312.95,114.861 1330.5,113.5 Z"/></g>
<g><path style="opacity:0.984" fill="#a7121b" d="M 1429.5,101.5 C 1430.55,101.351 1431.55,101.517 1432.5,102C 1398.14,118.181 1363.81,134.347 1329.5,150.5C 1329.44,149.957 1329.11,149.624 1328.5,149.5C 1264.21,170.04 1199.88,190.373 1135.5,210.5C 1136.89,206.062 1138.55,201.729 1140.5,197.5C 1159.72,191.87 1178.72,185.87 1197.5,179.5C 1272.44,154.297 1347.44,129.297 1422.5,104.5C 1424.89,103.651 1427.22,102.651 1429.5,101.5 Z"/></g>
<g><path style="opacity:0.946" fill="#e0001a" d="M 1278.5,119.5 C 1223.25,135.149 1167.92,150.815 1112.5,166.5C 1110.63,160.121 1106.97,154.954 1101.5,151C 1095.03,147.429 1088.36,144.429 1081.5,142C 1147.14,134.17 1212.8,126.67 1278.5,119.5 Z"/></g>
<g><path style="opacity:0.976" fill="#9e121b" d="M 1329.5,150.5 C 1308.62,160.438 1287.62,170.105 1266.5,179.5C 1220.9,193.033 1175.57,207.366 1130.5,222.5C 1131.41,218.099 1133.07,214.099 1135.5,210.5C 1199.88,190.373 1264.21,170.04 1328.5,149.5C 1329.11,149.624 1329.44,149.957 1329.5,150.5 Z"/></g>
<g><path style="opacity:1" fill="#ad0f1b" d="M 1172.5,165.5 C 1177.02,167.401 1181.68,169.234 1186.5,171C 1190.1,174.122 1193.77,176.955 1197.5,179.5C 1178.72,185.87 1159.72,191.87 1140.5,197.5C 1141.11,196.609 1141.44,195.609 1141.5,194.5C 1145.95,186.452 1151.29,178.952 1157.5,172C 1161.79,168.191 1166.79,166.024 1172.5,165.5 Z"/></g>
<g><path style="opacity:0.95" fill="#9a131b" d="M 1266.5,179.5 C 1219.04,202.058 1171.38,224.392 1123.5,246.5C 1122.7,246.043 1122.37,245.376 1122.5,244.5C 1125.17,237.167 1127.83,229.833 1130.5,222.5C 1175.57,207.366 1220.9,193.033 1266.5,179.5 Z"/></g>
<g><path style="opacity:0.982" fill="#b90b1b" d="M 1141.5,194.5 C 1141.44,195.609 1141.11,196.609 1140.5,197.5C 1138.55,201.729 1136.89,206.062 1135.5,210.5C 1133.07,214.099 1131.41,218.099 1130.5,222.5C 1127.83,229.833 1125.17,237.167 1122.5,244.5C 1120.9,229.862 1119.57,215.195 1118.5,200.5C 1126.21,198.656 1133.88,196.656 1141.5,194.5 Z"/></g>
<g><path style="opacity:0.992" fill="#00abe3" d="M 1718.5,209.5 C 1727.01,243.869 1735.68,278.203 1744.5,312.5C 1738.68,315.884 1732.68,318.884 1726.5,321.5C 1724.5,321.833 1722.5,322.167 1720.5,322.5C 1711.21,288.685 1702.21,254.685 1693.5,220.5C 1701.75,216.64 1710.08,212.974 1718.5,209.5 Z"/></g>
<g><path style="opacity:0.982" fill="#00afe5" d="M 1639.5,247.5 C 1641.82,262.599 1642.16,277.766 1640.5,293C 1640.15,311.722 1643.81,329.556 1651.5,346.5C 1660.23,366.06 1674.23,380.56 1693.5,390C 1673.49,395.832 1658.15,407.665 1647.5,425.5C 1630.15,414.165 1611.48,411.498 1591.5,417.5C 1591.17,417.167 1590.83,416.833 1590.5,416.5C 1603.95,399.037 1609.12,379.37 1606,357.5C 1564,369.354 1521.17,374.854 1477.5,374C 1466.73,373.487 1456.06,372.154 1445.5,370C 1439.44,368.982 1433.78,366.982 1428.5,364C 1450.58,365.135 1472.58,364.135 1494.5,361C 1460.57,361.313 1427.9,355.146 1396.5,342.5C 1385.03,336.264 1373.36,330.264 1361.5,324.5C 1341.63,312.149 1323.29,297.649 1306.5,281C 1315.01,283.497 1323.68,285.831 1332.5,288C 1339.46,289.412 1346.46,290.079 1353.5,290C 1329.24,281.878 1308.24,268.711 1290.5,250.5C 1309.66,259.225 1329.99,265.392 1351.5,269C 1356.14,269.998 1360.81,270.332 1365.5,270C 1335.62,259.428 1310.79,241.928 1291,217.5C 1289.83,215.667 1288.67,213.833 1287.5,212C 1293.28,216.767 1298.95,222.1 1304.5,228C 1326.65,244.405 1351.32,255.405 1378.5,261C 1419.09,269.817 1460.09,272.484 1501.5,269C 1516.55,266.223 1531.72,264.389 1547,263.5C 1553.52,264.017 1560.02,264.683 1566.5,265.5C 1567.5,265.167 1568.5,264.833 1569.5,264.5C 1567.6,256.272 1567.1,247.939 1568,239.5C 1569.64,231.862 1574.14,226.695 1581.5,224C 1591.74,222.373 1601.74,219.873 1611.5,216.5C 1619.3,216.815 1625.46,220.148 1630,226.5C 1634.06,233.201 1637.22,240.201 1639.5,247.5 Z"/></g>
<g><path style="opacity:0.978" fill="#122271" d="M 238.5,216.5 C 257.324,215.286 274.324,220.12 289.5,231C 299.12,239.738 304.954,250.571 307,263.5C 307.5,288.831 307.667,314.164 307.5,339.5C 293.167,339.5 278.833,339.5 264.5,339.5C 264.667,316.831 264.5,294.164 264,271.5C 259.372,256.768 249.539,251.268 234.5,255C 225.622,258.907 220.789,265.74 220,275.5C 219.333,293.833 219.333,312.167 220,330.5C 222.767,341.701 227.434,352.034 234,361.5C 254.667,390.167 275.333,418.833 296,447.5C 302.346,456.533 306.346,466.533 308,477.5C 308.667,506.5 308.667,535.5 308,564.5C 304.041,598.126 285.208,616.626 251.5,620C 229.936,622.824 210.269,618.158 192.5,606C 182.88,597.262 177.046,586.429 175,573.5C 173.571,545.53 173.071,517.53 173.5,489.5C 188.833,489.5 204.167,489.5 219.5,489.5C 219.067,515.2 219.567,540.867 221,566.5C 225.209,581.036 234.709,586.202 249.5,582C 255.622,578.613 259.455,573.446 261,566.5C 262.117,553.545 262.617,540.545 262.5,527.5C 262.617,514.455 262.117,501.455 261,488.5C 258.826,481.152 255.826,474.152 252,467.5C 231.911,439.656 211.578,411.989 191,384.5C 181.457,372.079 175.79,358.079 174,342.5C 173.333,321.167 173.333,299.833 174,278.5C 179.024,240.641 200.524,219.975 238.5,216.5 Z"/></g>
<g><path style="opacity:0.978" fill="#122271" d="M 507.5,216.5 C 525.479,215.495 542.479,218.995 558.5,227C 571.739,235.95 579.572,248.45 582,264.5C 583.486,381.807 583.986,499.141 583.5,616.5C 569.167,616.5 554.833,616.5 540.5,616.5C 540.666,609.492 540.5,602.492 540,595.5C 521.491,618.001 497.991,625.501 469.5,618C 450.712,610.873 439.546,597.373 436,577.5C 435.07,572.201 434.403,566.867 434,561.5C 433.333,521.5 433.333,481.5 434,441.5C 435.786,412.067 450.286,391.9 477.5,381C 496.915,374.239 516.915,371.073 537.5,371.5C 537.667,339.165 537.5,306.832 537,274.5C 534.756,260.624 526.589,253.624 512.5,253.5C 496.458,253.088 487.291,260.754 485,276.5C 483.74,294.143 483.24,311.81 483.5,329.5C 468.5,329.5 453.5,329.5 438.5,329.5C 438.333,310.164 438.5,290.83 439,271.5C 445.239,244.592 461.739,227.425 488.5,220C 494.933,218.597 501.267,217.43 507.5,216.5 Z M 531.5,408.5 C 533.5,408.5 535.5,408.5 537.5,408.5C 537.667,457.168 537.5,505.834 537,554.5C 531.04,580.73 515.54,588.897 490.5,579C 485.092,574.019 481.926,567.852 481,560.5C 479.39,522.191 479.057,483.857 480,445.5C 483.019,430.81 491.519,420.643 505.5,415C 514.066,411.86 522.733,409.693 531.5,408.5 Z"/></g>
<g><path style="opacity:0.988" fill="#122271" d="M 777.5,216.5 C 800.141,214.739 820.475,220.573 838.5,234C 849.976,245.791 856.476,259.958 858,276.5C 858.5,327.832 858.667,379.166 858.5,430.5C 823.833,430.5 789.167,430.5 754.5,430.5C 754.333,469.835 754.5,509.168 755,548.5C 756.362,577.573 770.862,588.073 798.5,580C 808.558,572.044 813.391,561.544 813,548.5C 813.5,528.169 813.667,507.836 813.5,487.5C 828.5,487.5 843.5,487.5 858.5,487.5C 858.667,511.836 858.5,536.169 858,560.5C 853.116,597.05 832.283,616.883 795.5,620C 778.7,621.692 762.367,619.692 746.5,614C 724.557,603.023 712.391,585.189 710,560.5C 709.014,463.803 709.348,367.137 711,270.5C 715.939,242.227 732.439,225.061 760.5,219C 766.317,218.191 771.983,217.358 777.5,216.5 Z M 783.5,253.5 C 800.105,254.268 809.605,262.935 812,279.5C 813.432,315.81 813.932,352.143 813.5,388.5C 793.833,388.5 774.167,388.5 754.5,388.5C 754.06,352.141 754.56,315.808 756,279.5C 758.322,263.339 767.489,254.672 783.5,253.5 Z"/></g>
<g><path style="opacity:0.976" fill="#122271" d="M 2.5,221.5 C 17.8333,221.5 33.1667,221.5 48.5,221.5C 48.5,353.167 48.5,484.833 48.5,616.5C 33.1667,616.5 17.8333,616.5 2.5,616.5C 2.5,484.833 2.5,353.167 2.5,221.5 Z"/></g>
<g><path style="opacity:0.993" fill="#00a5de" d="M 1693.5,220.5 C 1702.21,254.685 1711.21,288.685 1720.5,322.5C 1714.68,324.91 1709.02,327.577 1703.5,330.5C 1700.17,331.5 1696.83,332.5 1693.5,333.5C 1684.79,299.315 1675.79,265.315 1666.5,231.5C 1674.86,226.492 1683.86,222.825 1693.5,220.5 Z"/></g>
<g><path style="opacity:0.99" fill="#009eda" d="M 1666.5,231.5 C 1675.79,265.315 1684.79,299.315 1693.5,333.5C 1685.31,336.565 1676.97,339.231 1668.5,341.5C 1660.66,309.133 1652.66,276.8 1644.5,244.5C 1650.88,238.64 1658.21,234.307 1666.5,231.5 Z"/></g>
<g><path style="opacity:0.991" fill="#009ad7" d="M 1644.5,244.5 C 1652.66,276.8 1660.66,309.133 1668.5,341.5C 1662.77,343.015 1657.1,344.681 1651.5,346.5C 1643.81,329.556 1640.15,311.722 1640.5,293C 1642.16,277.766 1641.82,262.599 1639.5,247.5C 1641,246.248 1642.67,245.248 1644.5,244.5 Z"/></g>
<g><path style="opacity:0.852" fill="#fabb08" d="M 974.5,396.5 C 969.383,398.226 964.383,400.226 959.5,402.5C 954.935,373.359 962.769,348.026 983,326.5C 1008.1,302.683 1036.94,284.516 1069.5,272C 1080.92,266.974 1092.58,262.974 1104.5,260C 1071.65,271.922 1041.31,288.255 1013.5,309C 995.605,323.223 982.772,341.056 975,362.5C 971.886,373.803 971.719,385.136 974.5,396.5 Z"/></g>
<g><path style="opacity:0.876" fill="#122371" d="M 1726.5,321.5 C 1768.53,334.017 1807.86,352.183 1844.5,376C 1805.5,357.666 1764.84,343.666 1722.5,334C 1716.24,332.381 1709.91,331.214 1703.5,330.5C 1709.02,327.577 1714.68,324.91 1720.5,322.5C 1722.5,322.167 1724.5,321.833 1726.5,321.5 Z"/></g>
<g><path style="opacity:0.952" fill="#122371" d="M 1361.5,324.5 C 1373.36,330.264 1385.03,336.264 1396.5,342.5C 1300.75,366.864 1216.09,411.364 1142.5,476C 1101.85,513.306 1069.68,556.806 1046,606.5C 1040.67,618.992 1035.84,631.659 1031.5,644.5C 1035.89,607.66 1047.56,572.993 1066.5,540.5C 1073.08,530.342 1079.41,520.008 1085.5,509.5C 1125.23,456.932 1173.57,414.099 1230.5,381C 1272.05,357.226 1315.71,338.392 1361.5,324.5 Z"/></g>
<g><path style="opacity:0.945" fill="#fcc94c" d="M 974.5,396.5 C 975.964,401.558 977.63,406.558 979.5,411.5C 974.511,414.661 969.178,417.328 963.5,419.5C 961.385,414.039 960.052,408.373 959.5,402.5C 964.383,400.226 969.383,398.226 974.5,396.5 Z"/></g>
<g><path style="opacity:0.957" fill="#fdd067" d="M 979.5,411.5 C 981.548,415.926 983.882,420.26 986.5,424.5C 980.5,426.833 974.5,429.167 968.5,431.5C 966.444,427.667 964.778,423.667 963.5,419.5C 969.178,417.328 974.511,414.661 979.5,411.5 Z"/></g>
<g><path style="opacity:0.957" fill="#fdd780" d="M 986.5,424.5 C 989.221,427.894 991.554,431.561 993.5,435.5C 987.5,438.5 981.5,441.5 975.5,444.5C 972.407,440.653 970.074,436.32 968.5,431.5C 974.5,429.167 980.5,426.833 986.5,424.5 Z"/></g>
<g><path style="opacity:0.947" fill="#fedd95" d="M 993.5,435.5 C 996.392,438.271 999.058,441.271 1001.5,444.5C 994.833,447.833 988.167,451.167 981.5,454.5C 979,451.506 977,448.173 975.5,444.5C 981.5,441.5 987.5,438.5 993.5,435.5 Z"/></g>
<g><path style="opacity:0.958" fill="#fee3ab" d="M 1001.5,444.5 C 1005.14,448.474 1008.81,452.474 1012.5,456.5C 1005.17,459.833 997.833,463.167 990.5,466.5C 986.762,463.09 983.762,459.09 981.5,454.5C 988.167,451.167 994.833,447.833 1001.5,444.5 Z"/></g>
<g><path style="opacity:0.947" fill="#fee9bf" d="M 1012.5,456.5 C 1015.53,459.195 1018.53,461.862 1021.5,464.5C 1014.07,469.214 1006.07,472.88 997.5,475.5C 994.444,473.051 992.111,470.051 990.5,466.5C 997.833,463.167 1005.17,459.833 1012.5,456.5 Z"/></g>
<g><path style="opacity:0.942" fill="#fef1d7" d="M 1021.5,464.5 C 1026.82,468.489 1031.82,472.822 1036.5,477.5C 1027.31,481.562 1017.98,485.229 1008.5,488.5C 1004.49,484.485 1000.82,480.152 997.5,475.5C 1006.07,472.88 1014.07,469.214 1021.5,464.5 Z"/></g>
<g><path style="opacity:0.971" fill="#fefaf0" d="M 1036.5,477.5 C 1041.82,481.141 1047.15,484.808 1052.5,488.5C 1042.66,493.344 1032.66,498.011 1022.5,502.5C 1017.5,498.167 1012.83,493.5 1008.5,488.5C 1017.98,485.229 1027.31,481.562 1036.5,477.5 Z"/></g>
<g><path style="opacity:0.97" fill="#fefefe" d="M 1052.5,488.5 C 1063.02,496.26 1074.02,503.26 1085.5,509.5C 1079.41,520.008 1073.08,530.342 1066.5,540.5C 1050.92,528.925 1036.26,516.259 1022.5,502.5C 1032.66,498.011 1042.66,493.344 1052.5,488.5 Z"/></g>
<g><path style="opacity:0.809" fill="#122271" d="M 444.5,694.5 C 447.975,695.802 450.142,698.135 451,701.5C 447.081,703.876 443.248,706.376 439.5,709C 435.005,712.814 432.171,711.981 431,706.5C 435.694,702.635 440.194,698.635 444.5,694.5 Z"/></g>
<g><path style="opacity:0.809" fill="#122271" d="M 880.5,694.5 C 883.975,695.802 886.142,698.135 887,701.5C 883.081,703.876 879.248,706.376 875.5,709C 871.005,712.814 868.171,711.981 867,706.5C 871.694,702.635 876.194,698.635 880.5,694.5 Z"/></g>
<g><path style="opacity:0.889" fill="#122271" d="M 291.5,698.5 C 304.081,697.784 312.081,703.451 315.5,715.5C 312.696,717.101 309.696,718.101 306.5,718.5C 304.548,708.047 298.548,704.547 288.5,708C 282.965,712.443 282.299,717.443 286.5,723C 292.899,726.532 299.566,729.532 306.5,732C 320.324,742.485 320.991,753.819 308.5,766C 300.631,768.908 292.631,769.241 284.5,767C 276.598,763.361 272.598,757.194 272.5,748.5C 275.244,747.795 277.911,747.795 280.5,748.5C 284.497,760.167 292.164,763.667 303.5,759C 309.53,751.575 308.53,745.241 300.5,740C 291.795,737.887 284.295,733.72 278,727.5C 271.229,712.381 275.729,702.714 291.5,698.5 Z"/></g>
<g><path style="opacity:0.913" fill="#122271" d="M 2.5,700.5 C 5.5,700.5 8.5,700.5 11.5,700.5C 11.5,722.833 11.5,745.167 11.5,767.5C 8.5,767.5 5.5,767.5 2.5,767.5C 2.5,745.167 2.5,722.833 2.5,700.5 Z"/></g>
<g><path style="opacity:0.891" fill="#122271" d="M 133.5,700.5 C 136.5,700.5 139.5,700.5 142.5,700.5C 142.5,703.5 142.5,706.5 142.5,709.5C 139.5,709.5 136.5,709.5 133.5,709.5C 133.5,706.5 133.5,703.5 133.5,700.5 Z"/></g>
<g><path style="opacity:0.864" fill="#122271" d="M 488.5,700.5 C 491.5,700.5 494.5,700.5 497.5,700.5C 497.5,703.5 497.5,706.5 497.5,709.5C 494.5,709.5 491.5,709.5 488.5,709.5C 488.5,706.5 488.5,703.5 488.5,700.5 Z"/></g>
<g><path style="opacity:0.912" fill="#122271" d="M 676.5,700.5 C 679.167,700.5 681.833,700.5 684.5,700.5C 684.5,722.833 684.5,745.167 684.5,767.5C 682.167,767.5 679.833,767.5 677.5,767.5C 677.66,765.801 677.494,764.134 677,762.5C 675.164,765.175 672.664,767.008 669.5,768C 659.581,770.369 652.748,766.869 649,757.5C 645.667,747.833 645.667,738.167 649,728.5C 653.483,717.667 661.316,714.167 672.5,718C 673.667,719.167 674.833,720.333 676,721.5C 676.5,714.508 676.666,707.508 676.5,700.5 Z M 663.5,723.5 C 670.105,723.211 674.271,726.211 676,732.5C 676.667,739.5 676.667,746.5 676,753.5C 672.654,761.828 667.321,763.495 660,758.5C 658.249,756.51 657.249,754.177 657,751.5C 656.333,745.167 656.333,738.833 657,732.5C 657.873,728.475 660.039,725.475 663.5,723.5 Z"/></g>
<g><path style="opacity:0.83" fill="#122271" d="M 765.5,700.5 C 768.5,700.5 771.5,700.5 774.5,700.5C 774.5,722.833 774.5,745.167 774.5,767.5C 771.5,767.5 768.5,767.5 765.5,767.5C 765.5,745.167 765.5,722.833 765.5,700.5 Z"/></g>
<g><path style="opacity:0.864" fill="#122271" d="M 786.5,700.5 C 789.833,700.5 793.167,700.5 796.5,700.5C 797.53,708.774 795.364,716.107 790,722.5C 788.186,723.76 786.353,723.76 784.5,722.5C 786.167,719.167 787.833,715.833 789.5,712.5C 788.675,711.614 787.675,711.281 786.5,711.5C 786.5,707.833 786.5,704.167 786.5,700.5 Z"/></g>
<g><path style="opacity:0.904" fill="#122271" d="M 819.5,700.5 C 823.437,700.207 827.27,700.54 831,701.5C 837.146,723.433 842.979,745.433 848.5,767.5C 845.482,767.665 842.482,767.498 839.5,767C 837.76,761.212 836.094,755.378 834.5,749.5C 828.167,748.167 821.833,748.167 815.5,749.5C 813.906,755.378 812.24,761.212 810.5,767C 807.446,767.821 804.446,767.655 801.5,766.5C 807.816,744.568 813.816,722.568 819.5,700.5 Z M 824.5,711.5 C 827.297,721.011 829.964,730.678 832.5,740.5C 827.544,741.494 822.544,741.827 817.5,741.5C 819.833,731.5 822.167,721.5 824.5,711.5 Z"/></g>
<g><path style="opacity:0.864" fill="#122271" d="M 1133.5,700.5 C 1136.5,700.5 1139.5,700.5 1142.5,700.5C 1142.5,703.5 1142.5,706.5 1142.5,709.5C 1139.5,709.5 1136.5,709.5 1133.5,709.5C 1133.5,706.5 1133.5,703.5 1133.5,700.5 Z"/></g>
<g><path style="opacity:0.906" fill="#122271" d="M 1437.5,700.5 C 1440.17,700.5 1442.83,700.5 1445.5,700.5C 1445.5,722.833 1445.5,745.167 1445.5,767.5C 1443.17,767.5 1440.83,767.5 1438.5,767.5C 1438.66,765.801 1438.49,764.134 1438,762.5C 1433.47,768.058 1427.63,769.891 1420.5,768C 1414.48,765.512 1410.65,761.012 1409,754.5C 1406.9,745.739 1407.23,737.072 1410,728.5C 1413.52,718.822 1420.35,714.989 1430.5,717C 1433.1,717.883 1435.27,719.383 1437,721.5C 1437.5,714.508 1437.67,707.508 1437.5,700.5 Z M 1424.5,723.5 C 1431.46,723.291 1435.63,726.624 1437,733.5C 1437.89,740.914 1437.56,748.247 1436,755.5C 1431.42,762.418 1426.08,763.084 1420,757.5C 1415.97,748.297 1415.64,738.963 1419,729.5C 1420.36,726.977 1422.19,724.977 1424.5,723.5 Z"/></g>
<g><path style="opacity:0.83" fill="#122271" d="M 1526.5,700.5 C 1529.5,700.5 1532.5,700.5 1535.5,700.5C 1535.5,722.833 1535.5,745.167 1535.5,767.5C 1532.5,767.5 1529.5,767.5 1526.5,767.5C 1526.5,745.167 1526.5,722.833 1526.5,700.5 Z"/></g>
<g><path style="opacity:0.85" fill="#122271" d="M 1547.5,700.5 C 1550.83,700.5 1554.17,700.5 1557.5,700.5C 1558.07,705.777 1557.24,710.777 1555,715.5C 1553.37,717.917 1551.87,720.417 1550.5,723C 1548.87,723.494 1547.2,723.66 1545.5,723.5C 1546.47,719.392 1548.14,715.559 1550.5,712C 1549.55,711.517 1548.55,711.351 1547.5,711.5C 1547.5,707.833 1547.5,704.167 1547.5,700.5 Z"/></g>
<g><path style="opacity:0.913" fill="#122271" d="M 1567.5,700.5 C 1579.83,700.5 1592.17,700.5 1604.5,700.5C 1604.5,702.833 1604.5,705.167 1604.5,707.5C 1595.17,707.5 1585.83,707.5 1576.5,707.5C 1576.5,714.5 1576.5,721.5 1576.5,728.5C 1583.83,728.5 1591.17,728.5 1598.5,728.5C 1598.5,731.167 1598.5,733.833 1598.5,736.5C 1591.17,736.5 1583.83,736.5 1576.5,736.5C 1576.5,744.167 1576.5,751.833 1576.5,759.5C 1586.17,759.5 1595.83,759.5 1605.5,759.5C 1605.5,762.167 1605.5,764.833 1605.5,767.5C 1592.83,767.5 1580.17,767.5 1567.5,767.5C 1567.5,745.167 1567.5,722.833 1567.5,700.5 Z"/></g>
<g><path style="opacity:0.904" fill="#122271" d="M 110.5,705.5 C 112.833,705.5 115.167,705.5 117.5,705.5C 117.5,709.5 117.5,713.5 117.5,717.5C 120.833,717.5 124.167,717.5 127.5,717.5C 127.5,719.833 127.5,722.167 127.5,724.5C 124.167,724.5 120.833,724.5 117.5,724.5C 117.333,735.172 117.5,745.839 118,756.5C 118.11,758.848 119.277,760.348 121.5,761C 124.146,761.497 126.813,761.664 129.5,761.5C 129.5,763.833 129.5,766.167 129.5,768.5C 124.821,768.666 120.155,768.499 115.5,768C 113.333,767.167 111.833,765.667 111,763.5C 109.557,750.574 109.057,737.574 109.5,724.5C 107.167,724.5 104.833,724.5 102.5,724.5C 102.5,722.167 102.5,719.833 102.5,717.5C 104.833,717.5 107.167,717.5 109.5,717.5C 109.237,713.4 109.57,709.4 110.5,705.5 Z"/></g>
<g><path style="opacity:0.906" fill="#122271" d="M 155.5,705.5 C 158.167,705.5 160.833,705.5 163.5,705.5C 163.5,709.5 163.5,713.5 163.5,717.5C 166.5,717.5 169.5,717.5 172.5,717.5C 172.5,719.833 172.5,722.167 172.5,724.5C 169.5,724.5 166.5,724.5 163.5,724.5C 163.333,735.505 163.5,746.505 164,757.5C 164.465,758.931 165.299,760.097 166.5,761C 169.482,761.498 172.482,761.665 175.5,761.5C 175.5,763.833 175.5,766.167 175.5,768.5C 170.821,768.666 166.155,768.499 161.5,768C 159.714,767.215 158.214,766.049 157,764.5C 155.556,751.24 155.056,737.907 155.5,724.5C 152.833,724.5 150.167,724.5 147.5,724.5C 147.5,722.167 147.5,719.833 147.5,717.5C 150.167,717.5 152.833,717.5 155.5,717.5C 155.5,713.5 155.5,709.5 155.5,705.5 Z"/></g>
<g><path style="opacity:0.903" fill="#122271" d="M 226.5,705.5 C 229.167,705.5 231.833,705.5 234.5,705.5C 234.5,709.5 234.5,713.5 234.5,717.5C 237.833,717.5 241.167,717.5 244.5,717.5C 244.5,719.833 244.5,722.167 244.5,724.5C 241.167,724.5 237.833,724.5 234.5,724.5C 234.333,735.505 234.5,746.505 235,757.5C 235.5,759.333 236.667,760.5 238.5,761C 241.146,761.497 243.813,761.664 246.5,761.5C 246.5,763.833 246.5,766.167 246.5,768.5C 241.821,768.666 237.155,768.499 232.5,768C 230.714,767.215 229.214,766.049 228,764.5C 226.556,751.24 226.056,737.907 226.5,724.5C 224.167,724.5 221.833,724.5 219.5,724.5C 219.5,722.167 219.5,719.833 219.5,717.5C 221.833,717.5 224.167,717.5 226.5,717.5C 226.5,713.5 226.5,709.5 226.5,705.5 Z"/></g>
<g><path style="opacity:0.903" fill="#122271" d="M 1109.5,705.5 C 1112.17,705.5 1114.83,705.5 1117.5,705.5C 1117.5,709.5 1117.5,713.5 1117.5,717.5C 1120.5,717.5 1123.5,717.5 1126.5,717.5C 1126.5,719.833 1126.5,722.167 1126.5,724.5C 1123.5,724.5 1120.5,724.5 1117.5,724.5C 1117.33,735.505 1117.5,746.505 1118,757.5C 1118.47,758.931 1119.3,760.097 1120.5,761C 1123.48,761.498 1126.48,761.665 1129.5,761.5C 1129.5,763.833 1129.5,766.167 1129.5,768.5C 1124.82,768.666 1120.15,768.499 1115.5,768C 1113.71,767.215 1112.21,766.049 1111,764.5C 1109.56,751.24 1109.06,737.907 1109.5,724.5C 1106.83,724.5 1104.17,724.5 1101.5,724.5C 1101.5,722.167 1101.5,719.833 1101.5,717.5C 1104.17,717.5 1106.83,717.5 1109.5,717.5C 1109.5,713.5 1109.5,709.5 1109.5,705.5 Z"/></g>
<g><path style="opacity:0.853" fill="#122271" d="M 1361.5,705.5 C 1364.17,705.5 1366.83,705.5 1369.5,705.5C 1369.5,709.5 1369.5,713.5 1369.5,717.5C 1372.5,717.5 1375.5,717.5 1378.5,717.5C 1378.5,719.833 1378.5,722.167 1378.5,724.5C 1375.5,724.5 1372.5,724.5 1369.5,724.5C 1369.33,735.505 1369.5,746.505 1370,757.5C 1370.47,758.931 1371.3,760.097 1372.5,761C 1375.48,761.498 1378.48,761.665 1381.5,761.5C 1381.5,763.833 1381.5,766.167 1381.5,768.5C 1376.82,768.666 1372.15,768.499 1367.5,768C 1365,766.833 1363.17,765 1362,762.5C 1360.68,749.872 1360.18,737.205 1360.5,724.5C 1358.17,724.5 1355.83,724.5 1353.5,724.5C 1353.5,722.167 1353.5,719.833 1353.5,717.5C 1355.83,717.5 1358.17,717.5 1360.5,717.5C 1360.24,713.4 1360.57,709.4 1361.5,705.5 Z"/></g>
<g><path style="opacity:0.875" fill="#122271" d="M 38.5,716.5 C 43.777,715.931 48.777,716.765 53.5,719C 54.2106,720.255 55.044,721.421 56,722.5C 57.4338,737.442 57.9338,752.442 57.5,767.5C 54.8333,767.5 52.1667,767.5 49.5,767.5C 49.6665,755.162 49.4999,742.829 49,730.5C 47.3195,723.47 43.1528,721.636 36.5,725C 34.9315,727.304 33.7648,729.804 33,732.5C 32.5001,744.162 32.3335,755.829 32.5,767.5C 29.5,767.5 26.5,767.5 23.5,767.5C 23.5,750.833 23.5,734.167 23.5,717.5C 26.1667,717.5 28.8333,717.5 31.5,717.5C 31.3398,719.199 31.5065,720.866 32,722.5C 33.4936,719.686 35.6603,717.686 38.5,716.5 Z"/></g>
<g><path style="opacity:0.872" fill="#122271" d="M 76.5,716.5 C 88.037,713.93 95.7037,718.096 99.5,729C 97.2222,729.986 94.8889,730.82 92.5,731.5C 90.6437,727.134 87.477,724.467 83,723.5C 78.2017,723.466 75.3684,725.8 74.5,730.5C 74.8757,732.383 75.8757,733.883 77.5,735C 82.0907,736.864 86.7574,738.53 91.5,740C 103.563,747.329 104.563,755.996 94.5,766C 88.4174,768.474 82.0841,769.141 75.5,768C 69.0581,765.378 65.3914,760.544 64.5,753.5C 66.5466,753.489 68.5466,753.156 70.5,752.5C 72.8386,754.647 74.8386,757.147 76.5,760C 80.8333,762 85.1667,762 89.5,760C 93.3927,756.254 93.3927,752.588 89.5,749C 83.4213,746.863 77.4213,744.529 71.5,742C 66.3933,737.002 65.2266,731.168 68,724.5C 70.0738,720.923 72.9072,718.256 76.5,716.5 Z"/></g>
<g><path style="opacity:0.897" fill="#122271" d="M 387.5,716.5 C 399.186,715.02 406.353,720.02 409,731.5C 410.897,740.669 410.23,749.669 407,758.5C 403.091,766.871 396.591,770.037 387.5,768C 384.804,767.31 382.637,765.81 381,763.5C 380.5,770.492 380.334,777.492 380.5,784.5C 377.833,784.5 375.167,784.5 372.5,784.5C 372.5,762.167 372.5,739.833 372.5,717.5C 374.833,717.5 377.167,717.5 379.5,717.5C 379.338,719.527 379.505,721.527 380,723.5C 381.742,720.254 384.242,717.921 387.5,716.5 Z M 388.5,723.5 C 391.862,723.07 394.695,724.07 397,726.5C 402.532,737.061 402.532,747.728 397,758.5C 389.396,763.043 384.062,761.043 381,752.5C 380.333,746.167 380.333,739.833 381,733.5C 382.213,729.131 384.713,725.797 388.5,723.5 Z"/></g>
<g><path style="opacity:0.907" fill="#122271" d="M 430.5,716.5 C 444.06,714.224 451.893,719.891 454,733.5C 454.498,736.817 454.665,740.15 454.5,743.5C 444.833,743.5 435.167,743.5 425.5,743.5C 425.072,750.487 427.406,756.32 432.5,761C 439.899,762.758 444.232,759.925 445.5,752.5C 448.734,752.205 451.734,752.871 454.5,754.5C 450.548,766.813 442.215,771.313 429.5,768C 424.269,765.768 420.769,761.935 419,756.5C 416.279,745.122 417.279,734.122 422,723.5C 424.441,720.546 427.275,718.213 430.5,716.5 Z M 432.5,723.5 C 441.772,723.293 446.105,727.959 445.5,737.5C 439.167,737.5 432.833,737.5 426.5,737.5C 426.399,731.87 428.399,727.204 432.5,723.5 Z"/></g>
<g><path style="opacity:0.839" fill="#122271" d="M 478.5,716.5 C 480.833,716.5 483.167,716.5 485.5,716.5C 485.5,719.5 485.5,722.5 485.5,725.5C 478.687,724.812 474.52,727.812 473,734.5C 472.5,745.495 472.333,756.495 472.5,767.5C 469.5,767.5 466.5,767.5 463.5,767.5C 463.5,750.833 463.5,734.167 463.5,717.5C 466.167,717.5 468.833,717.5 471.5,717.5C 471.338,719.527 471.505,721.527 472,723.5C 473.694,720.642 475.861,718.309 478.5,716.5 Z"/></g>
<g><path style="opacity:0.906" fill="#122271" d="M 520.5,716.5 C 531.925,714.29 539.425,718.623 543,729.5C 544.122,734.102 544.622,738.768 544.5,743.5C 534.833,743.5 525.167,743.5 515.5,743.5C 515.536,747.979 516.369,752.312 518,756.5C 520.897,761.155 525.063,762.655 530.5,761C 533.596,758.971 535.262,756.138 535.5,752.5C 537.527,752.338 539.527,752.505 541.5,753C 542.516,753.519 543.182,754.353 543.5,755.5C 539.678,767.247 531.678,771.414 519.5,768C 515.388,766.221 512.222,763.388 510,759.5C 505.523,747.721 505.856,736.055 511,724.5C 513.772,721.217 516.939,718.55 520.5,716.5 Z M 522.5,723.5 C 531.522,723.528 535.855,728.195 535.5,737.5C 529.167,737.5 522.833,737.5 516.5,737.5C 516.392,731.792 518.392,727.126 522.5,723.5 Z"/></g>
<g><path style="opacity:0.917" fill="#122271" d="M 614.5,716.5 C 616.5,716.5 618.5,716.5 620.5,716.5C 620.5,719.5 620.5,722.5 620.5,725.5C 615.048,725.144 611.215,727.477 609,732.5C 607.588,744.104 607.088,755.771 607.5,767.5C 604.833,767.5 602.167,767.5 599.5,767.5C 599.5,750.833 599.5,734.167 599.5,717.5C 601.833,717.5 604.167,717.5 606.5,717.5C 606.337,719.857 606.503,722.19 607,724.5C 609.028,721.308 611.528,718.641 614.5,716.5 Z"/></g>
<g><path style="opacity:0.901" fill="#122271" d="M 708.5,716.5 C 720.997,714.157 728.497,719.157 731,731.5C 731.501,735.51 732.001,739.51 732.5,743.5C 722.833,743.5 713.167,743.5 703.5,743.5C 703.344,747.582 703.844,751.582 705,755.5C 708.392,761.467 713.226,762.967 719.5,760C 721.353,757.96 722.686,755.627 723.5,753C 726.192,752.57 728.859,752.737 731.5,753.5C 728.43,766.211 720.43,771.044 707.5,768C 699.928,764.739 695.761,758.905 695,750.5C 693.283,740.506 694.949,731.173 700,722.5C 702.671,720.098 705.505,718.098 708.5,716.5 Z M 710.5,723.5 C 719.571,723.58 723.571,728.246 722.5,737.5C 716.167,737.5 709.833,737.5 703.5,737.5C 703.752,731.661 706.086,726.995 710.5,723.5 Z"/></g>
<g><path style="opacity:0.906" fill="#122271" d="M 866.5,716.5 C 880.06,714.224 887.893,719.891 890,733.5C 890.498,736.817 890.665,740.15 890.5,743.5C 880.833,743.5 871.167,743.5 861.5,743.5C 861.072,750.487 863.406,756.32 868.5,761C 875.899,762.758 880.232,759.925 881.5,752.5C 884.734,752.205 887.734,752.871 890.5,754.5C 886.548,766.813 878.215,771.313 865.5,768C 860.269,765.768 856.769,761.935 855,756.5C 852.229,745.106 853.229,734.106 858,723.5C 860.441,720.546 863.275,718.213 866.5,716.5 Z M 868.5,723.5 C 877.772,723.293 882.105,727.959 881.5,737.5C 875.167,737.5 868.833,737.5 862.5,737.5C 862.399,731.87 864.399,727.204 868.5,723.5 Z"/></g>
<g><path style="opacity:0.839" fill="#122271" d="M 914.5,716.5 C 916.833,716.5 919.167,716.5 921.5,716.5C 921.5,719.5 921.5,722.5 921.5,725.5C 914.687,724.812 910.52,727.812 909,734.5C 908.5,745.495 908.333,756.495 908.5,767.5C 905.5,767.5 902.5,767.5 899.5,767.5C 899.5,750.833 899.5,734.167 899.5,717.5C 902.167,717.5 904.833,717.5 907.5,717.5C 907.338,719.527 907.505,721.527 908,723.5C 909.694,720.642 911.861,718.309 914.5,716.5 Z"/></g>
<g><path style="opacity:0.898" fill="#122271" d="M 935.5,716.5 C 953.664,715.33 962.331,723.997 961.5,742.5C 961.767,750.593 959.6,757.926 955,764.5C 947.978,768.787 940.478,769.62 932.5,767C 925.196,760.615 921.862,752.448 922.5,742.5C 921.587,730.991 925.921,722.324 935.5,716.5 Z M 938.5,723.5 C 942.909,722.618 946.409,723.952 949,727.5C 953.848,738.342 953.515,749.009 948,759.5C 940.577,763.536 935.577,761.536 933,753.5C 931,746.167 931,738.833 933,731.5C 934.273,728.403 936.107,725.736 938.5,723.5 Z"/></g>
<g><path style="opacity:0.875" fill="#122271" d="M 985.5,716.5 C 990.777,715.931 995.777,716.765 1000.5,719C 1001.7,719.903 1002.53,721.069 1003,722.5C 1004.45,737.428 1004.95,752.428 1004.5,767.5C 1001.83,767.5 999.167,767.5 996.5,767.5C 996.667,754.829 996.5,742.162 996,729.5C 994.593,723.939 991.093,722.105 985.5,724C 982.533,726.1 980.7,728.934 980,732.5C 979.5,744.162 979.333,755.829 979.5,767.5C 976.5,767.5 973.5,767.5 970.5,767.5C 970.5,750.833 970.5,734.167 970.5,717.5C 973.167,717.5 975.833,717.5 978.5,717.5C 978.34,719.199 978.506,720.866 979,722.5C 980.494,719.686 982.66,717.686 985.5,716.5 Z"/></g>
<g><path style="opacity:0.897" fill="#122271" d="M 1027.5,716.5 C 1032.93,716.161 1038.26,716.661 1043.5,718C 1046.38,719.251 1048.21,721.417 1049,724.5C 1050.11,738.49 1050.95,752.49 1051.5,766.5C 1046.05,768.71 1042.88,767.043 1042,761.5C 1040.5,764.333 1038.33,766.5 1035.5,768C 1019.36,770.522 1012.52,763.689 1015,747.5C 1017.26,742.243 1021.09,738.743 1026.5,737C 1031.82,736.501 1037.16,736.334 1042.5,736.5C 1043.05,726.88 1038.72,722.714 1029.5,724C 1026.97,725.033 1025.3,726.867 1024.5,729.5C 1017.48,732.244 1015.31,730.244 1018,723.5C 1020.53,720.115 1023.7,717.782 1027.5,716.5 Z M 1032.5,742.5 C 1041.94,740.94 1044.77,744.607 1041,753.5C 1037.18,761.923 1031.51,763.59 1024,758.5C 1021.36,750.114 1024.19,744.781 1032.5,742.5 Z"/></g>
<g><path style="opacity:0.858" fill="#122271" d="M 1165.5,716.5 C 1173.13,715.065 1178.63,717.732 1182,724.5C 1182.73,722.129 1183.57,719.795 1184.5,717.5C 1186.05,716.548 1187.71,716.215 1189.5,716.5C 1189.5,739.167 1189.5,761.833 1189.5,784.5C 1186.5,784.5 1183.5,784.5 1180.5,784.5C 1180.67,777.492 1180.5,770.492 1180,763.5C 1171.72,770.406 1163.72,770.072 1156,762.5C 1150.8,751.145 1150.13,739.478 1154,727.5C 1156.44,722.226 1160.27,718.56 1165.5,716.5 Z M 1168.5,723.5 C 1174.71,723.516 1178.54,726.516 1180,732.5C 1180.67,739.167 1180.67,745.833 1180,752.5C 1176.06,762.337 1170.39,763.67 1163,756.5C 1159.71,747.193 1159.71,737.859 1163,728.5C 1164.73,726.598 1166.56,724.931 1168.5,723.5 Z"/></g>
<g><path style="opacity:0.901" fill="#122271" d="M 1258.5,716.5 C 1268.85,714.256 1276.01,717.923 1280,727.5C 1281.38,732.755 1282.21,738.088 1282.5,743.5C 1272.83,743.5 1263.17,743.5 1253.5,743.5C 1252.97,748.901 1254.13,753.901 1257,758.5C 1264.54,763.636 1270.04,761.969 1273.5,753.5C 1274.33,753.167 1275.17,752.833 1276,752.5C 1277.82,752.943 1279.66,753.277 1281.5,753.5C 1278.47,766.194 1270.47,771.027 1257.5,768C 1249.78,764.444 1245.62,758.277 1245,749.5C 1243.58,739.916 1245.25,730.916 1250,722.5C 1252.67,720.098 1255.5,718.098 1258.5,716.5 Z M 1260.5,723.5 C 1269.57,723.58 1273.57,728.246 1272.5,737.5C 1266.13,737.83 1259.8,737.496 1253.5,736.5C 1254.04,731.071 1256.38,726.738 1260.5,723.5 Z"/></g>
<g><path style="opacity:0.902" fill="#122271" d="M 1327.5,716.5 C 1337.85,714.256 1345.01,717.923 1349,727.5C 1350.25,732.773 1351.09,738.106 1351.5,743.5C 1341.83,743.5 1332.17,743.5 1322.5,743.5C 1322.19,748.371 1323.03,753.037 1325,757.5C 1328.85,761.671 1333.35,762.504 1338.5,760C 1340.21,758.084 1341.54,755.918 1342.5,753.5C 1343.33,753.167 1344.17,752.833 1345,752.5C 1346.82,752.943 1348.66,753.277 1350.5,753.5C 1347.43,766.211 1339.43,771.044 1326.5,768C 1323.76,766.93 1321.26,765.43 1319,763.5C 1311.71,749.843 1311.71,736.176 1319,722.5C 1321.67,720.098 1324.5,718.098 1327.5,716.5 Z M 1329.5,723.5 C 1338.57,723.58 1342.57,728.246 1341.5,737.5C 1335.13,737.83 1328.8,737.496 1322.5,736.5C 1323.04,731.071 1325.38,726.738 1329.5,723.5 Z"/></g>
<g><path style="opacity:0.902" fill="#122271" d="M 1468.5,716.5 C 1481.67,714.195 1489.51,719.528 1492,732.5C 1492.5,736.152 1492.67,739.818 1492.5,743.5C 1483.17,743.5 1473.83,743.5 1464.5,743.5C 1464.23,747.605 1464.73,751.605 1466,755.5C 1469.39,761.467 1474.23,762.967 1480.5,760C 1482.27,757.904 1483.6,755.571 1484.5,753C 1487.39,752.277 1490.05,752.777 1492.5,754.5C 1487.16,768.728 1477.5,772.561 1463.5,766C 1459.29,762.083 1456.79,757.25 1456,751.5C 1454.17,741.145 1455.84,731.478 1461,722.5C 1463.11,719.879 1465.61,717.879 1468.5,716.5 Z M 1470.5,723.5 C 1480.24,722.929 1484.58,727.595 1483.5,737.5C 1477.17,737.5 1470.83,737.5 1464.5,737.5C 1464.77,732.015 1466.77,727.348 1470.5,723.5 Z"/></g>
<g><path style="opacity:0.881" fill="#122271" d="M 1620.5,716.5 C 1631.44,713.799 1638.77,717.633 1642.5,728C 1642.09,728.945 1641.43,729.612 1640.5,730C 1638.9,730.273 1637.4,730.773 1636,731.5C 1632.95,723.716 1627.78,721.716 1620.5,725.5C 1617.83,728.5 1617.83,731.5 1620.5,734.5C 1628.14,736.865 1635.31,740.198 1642,744.5C 1646.71,753.699 1644.87,761.199 1636.5,767C 1630.59,768.527 1624.59,768.861 1618.5,768C 1611.82,765.476 1608.49,760.643 1608.5,753.5C 1611.17,753.167 1613.83,752.833 1616.5,752.5C 1618.39,760.452 1623.39,763.286 1631.5,761C 1636.12,758.152 1637.12,754.485 1634.5,750C 1628.28,747.147 1621.95,744.48 1615.5,742C 1610.25,736.735 1609.08,730.568 1612,723.5C 1614.44,720.546 1617.27,718.213 1620.5,716.5 Z"/></g>
<g><path style="opacity:0.903" fill="#122271" d="M 1667.5,716.5 C 1679.19,715.02 1686.35,720.02 1689,731.5C 1690.76,740.637 1690.1,749.637 1687,758.5C 1683.09,766.871 1676.59,770.037 1667.5,768C 1664.8,767.31 1662.64,765.81 1661,763.5C 1660.5,770.492 1660.33,777.492 1660.5,784.5C 1657.83,784.5 1655.17,784.5 1652.5,784.5C 1652.5,762.167 1652.5,739.833 1652.5,717.5C 1654.83,717.5 1657.17,717.5 1659.5,717.5C 1659.34,719.527 1659.5,721.527 1660,723.5C 1661.74,720.254 1664.24,717.921 1667.5,716.5 Z M 1668.5,723.5 C 1675.23,723.456 1679.07,726.789 1680,733.5C 1680.67,739.5 1680.67,745.5 1680,751.5C 1678.01,760.911 1672.85,763.411 1664.5,759C 1662.68,757.2 1661.52,755.034 1661,752.5C 1660.33,746.167 1660.33,739.833 1661,733.5C 1662.25,729.106 1664.75,725.772 1668.5,723.5 Z"/></g>
<g><path style="opacity:0.892" fill="#122271" d="M 1709.5,716.5 C 1714.18,716.334 1718.85,716.501 1723.5,717C 1729.36,718.518 1732.52,722.352 1733,728.5C 1733.19,741.212 1733.69,753.879 1734.5,766.5C 1729.05,768.71 1725.88,767.043 1725,761.5C 1723.5,764.333 1721.33,766.5 1718.5,768C 1702.33,770.5 1695.5,763.667 1698,747.5C 1699.78,741.843 1703.62,738.343 1709.5,737C 1714.82,736.501 1720.16,736.334 1725.5,736.5C 1726.05,726.879 1721.72,722.712 1712.5,724C 1709.97,725.033 1708.3,726.867 1707.5,729.5C 1697.64,731.756 1695.98,729.089 1702.5,721.5C 1704.72,719.566 1707.06,717.899 1709.5,716.5 Z M 1715.5,742.5 C 1724.94,740.94 1727.77,744.607 1724,753.5C 1721.45,760.358 1716.62,762.858 1709.5,761C 1704.39,755.78 1704.39,750.446 1709.5,745C 1711.61,744.155 1713.61,743.322 1715.5,742.5 Z"/></g>
<g><path style="opacity:0.876" fill="#122271" d="M 1755.5,716.5 C 1768.45,713.964 1776.12,719.131 1778.5,732C 1778.36,732.772 1778.02,733.439 1777.5,734C 1775.44,734.311 1773.44,734.811 1771.5,735.5C 1770.01,732.001 1768.35,728.501 1766.5,725C 1762.29,722.731 1758.45,723.231 1755,726.5C 1751.1,737.27 1751.1,747.936 1755,758.5C 1759.41,762.423 1763.74,762.423 1768,758.5C 1768.75,755.361 1769.75,752.361 1771,749.5C 1773.38,750.435 1775.88,750.768 1778.5,750.5C 1777.6,765.802 1769.6,771.635 1754.5,768C 1748.74,765.342 1745.24,760.842 1744,754.5C 1741.79,743.84 1742.79,733.507 1747,723.5C 1749.46,720.519 1752.3,718.186 1755.5,716.5 Z"/></g>
<g><path style="opacity:0.902" fill="#122271" d="M 1797.5,716.5 C 1807.85,714.256 1815.01,717.923 1819,727.5C 1820.25,732.773 1821.09,738.106 1821.5,743.5C 1811.83,743.5 1802.17,743.5 1792.5,743.5C 1791.97,748.901 1793.13,753.901 1796,758.5C 1803.54,763.636 1809.04,761.969 1812.5,753.5C 1813.33,753.167 1814.17,752.833 1815,752.5C 1816.82,752.943 1818.66,753.277 1820.5,753.5C 1817.47,766.194 1809.47,771.027 1796.5,768C 1788.78,764.444 1784.62,758.277 1784,749.5C 1782.58,739.916 1784.25,730.916 1789,722.5C 1791.67,720.098 1794.5,718.098 1797.5,716.5 Z M 1799.5,723.5 C 1808.57,723.58 1812.57,728.246 1811.5,737.5C 1805.13,737.83 1798.8,737.496 1792.5,736.5C 1793.04,731.071 1795.38,726.738 1799.5,723.5 Z"/></g>
<g><path style="opacity:0.82" fill="#122271" d="M 133.5,717.5 C 136.5,717.5 139.5,717.5 142.5,717.5C 142.5,734.167 142.5,750.833 142.5,767.5C 139.5,767.5 136.5,767.5 133.5,767.5C 133.5,750.833 133.5,734.167 133.5,717.5 Z"/></g>
<g><path style="opacity:0.901" fill="#122271" d="M 179.5,717.5 C 182.167,717.5 184.833,717.5 187.5,717.5C 187.333,729.505 187.5,741.505 188,753.5C 189.112,761.604 193.279,763.604 200.5,759.5C 202.194,757.446 203.361,755.112 204,752.5C 205.193,740.864 205.693,729.197 205.5,717.5C 208.167,717.5 210.833,717.5 213.5,717.5C 213.5,734.167 213.5,750.833 213.5,767.5C 210.833,767.5 208.167,767.5 205.5,767.5C 205.657,766.127 205.49,764.793 205,763.5C 203.457,765.378 201.624,766.878 199.5,768C 193.621,769.223 188.121,768.389 183,765.5C 181.438,763.043 180.438,760.376 180,757.5C 179.5,744.171 179.333,730.837 179.5,717.5 Z"/></g>
<g><path style="opacity:0.881" fill="#122271" d="M 326.5,717.5 C 329.167,717.5 331.833,717.5 334.5,717.5C 334.333,730.171 334.5,742.838 335,755.5C 336.236,761.22 339.736,763.053 345.5,761C 348.754,758.658 350.588,755.491 351,751.5C 351.5,740.172 351.667,728.838 351.5,717.5C 354.5,717.5 357.5,717.5 360.5,717.5C 360.5,734.167 360.5,750.833 360.5,767.5C 357.833,767.5 355.167,767.5 352.5,767.5C 352.66,765.801 352.494,764.134 352,762.5C 349.516,767.409 345.516,769.409 340,768.5C 334.651,769.141 330.651,767.141 328,762.5C 326.566,747.558 326.066,732.558 326.5,717.5 Z"/></g>
<g><path style="opacity:0.923" fill="#122271" d="M 489.5,717.5 C 492.167,717.5 494.833,717.5 497.5,717.5C 497.5,734.167 497.5,750.833 497.5,767.5C 494.833,767.5 492.167,767.5 489.5,767.5C 489.5,750.833 489.5,734.167 489.5,717.5 Z"/></g>
<g><path style="opacity:0.873" fill="#122271" d="M 553.5,717.5 C 556.167,717.5 558.833,717.5 561.5,717.5C 561.333,729.838 561.5,742.171 562,754.5C 562.801,760.824 566.301,762.99 572.5,761C 575.467,758.9 577.3,756.066 578,752.5C 578.5,740.838 578.667,729.171 578.5,717.5C 581.5,717.5 584.5,717.5 587.5,717.5C 587.5,734.167 587.5,750.833 587.5,767.5C 584.833,767.5 582.167,767.5 579.5,767.5C 579.66,765.801 579.494,764.134 579,762.5C 577.833,765 576,766.833 573.5,768C 567.621,769.223 562.121,768.389 557,765.5C 555.725,763.283 554.725,760.949 554,758.5C 553.5,744.837 553.333,731.171 553.5,717.5 Z"/></g>
<g><path style="opacity:0.873" fill="#122271" d="M 1062.5,717.5 C 1065.17,717.5 1067.83,717.5 1070.5,717.5C 1070.33,730.171 1070.5,742.838 1071,755.5C 1072.24,761.22 1075.74,763.053 1081.5,761C 1084.75,758.658 1086.59,755.491 1087,751.5C 1087.5,740.172 1087.67,728.838 1087.5,717.5C 1090.5,717.5 1093.5,717.5 1096.5,717.5C 1096.5,734.167 1096.5,750.833 1096.5,767.5C 1093.83,767.5 1091.17,767.5 1088.5,767.5C 1088.66,765.801 1088.49,764.134 1088,762.5C 1085.52,767.409 1081.52,769.409 1076,768.5C 1070.65,769.141 1066.65,767.141 1064,762.5C 1062.57,747.558 1062.07,732.558 1062.5,717.5 Z"/></g>
<g><path style="opacity:0.923" fill="#122271" d="M 1133.5,717.5 C 1136.17,717.5 1138.83,717.5 1141.5,717.5C 1141.5,734.167 1141.5,750.833 1141.5,767.5C 1138.83,767.5 1136.17,767.5 1133.5,767.5C 1133.5,750.833 1133.5,734.167 1133.5,717.5 Z"/></g>
<g><path style="opacity:0.884" fill="#122271" d="M 1201.5,717.5 C 1204.17,717.5 1206.83,717.5 1209.5,717.5C 1209.33,730.504 1209.5,743.504 1210,756.5C 1210.57,760.242 1212.74,761.908 1216.5,761.5C 1222.14,760.686 1225.31,757.352 1226,751.5C 1226.5,740.172 1226.67,728.838 1226.5,717.5C 1229.5,717.5 1232.5,717.5 1235.5,717.5C 1235.5,734.167 1235.5,750.833 1235.5,767.5C 1232.83,767.5 1230.17,767.5 1227.5,767.5C 1227.66,765.801 1227.49,764.134 1227,762.5C 1225.75,765.381 1223.58,767.214 1220.5,768C 1216.5,768.667 1212.5,768.667 1208.5,768C 1204.83,766.332 1202.67,763.499 1202,759.5C 1201.5,745.504 1201.33,731.504 1201.5,717.5 Z"/></g>
<g><path style="opacity:1" fill="#162883" d="M -0.5,806.5 C 603.834,806.167 1208.17,806.5 1812.5,807.5C 1208.17,808.5 603.834,808.833 -0.5,808.5C -0.5,807.833 -0.5,807.167 -0.5,806.5 Z"/></g>
<g><path style="opacity:0.988" fill="#009ddf" d="M 1794.5,880.5 C 1794.74,882.404 1795.74,883.738 1797.5,884.5C 1812.25,907.927 1820.75,933.594 1823,961.5C 1826.47,997.311 1823.8,1032.64 1815,1067.5C 1809.12,1088.45 1798.28,1106.28 1782.5,1121C 1757.2,1138.96 1731.2,1140.12 1704.5,1124.5C 1703.42,1122.41 1701.75,1121.08 1699.5,1120.5C 1688.47,1110.95 1680.31,1099.28 1675,1085.5C 1664.59,1057.29 1659.75,1028.12 1660.5,998C 1659.77,967.562 1664.6,938.062 1675,909.5C 1682.45,890.057 1694.95,874.891 1712.5,864C 1736.25,853.005 1759.25,854.339 1781.5,868C 1786.34,871.67 1790.67,875.836 1794.5,880.5 Z M 1764.5,904.5 C 1773.15,914.575 1778.65,926.241 1781,939.5C 1787.92,975.433 1788.25,1011.43 1782,1047.5C 1779.78,1059.16 1775.78,1070.16 1770,1080.5C 1755.73,1099.01 1739.23,1101.34 1720.5,1087.5C 1709.39,1067.74 1703.56,1046.4 1703,1023.5C 1701.17,995.933 1702.83,968.6 1708,941.5C 1710.79,930.254 1715.46,919.921 1722,910.5C 1734.68,898.175 1748.84,896.175 1764.5,904.5 Z"/></g>
<g><path style="opacity:0.987" fill="#009ddf" d="M 111.5,870.5 C 111.167,884.504 110.667,898.504 110,912.5C 95.6946,901.965 79.8613,898.465 62.5,902C 54.2154,905.949 49.382,912.449 48,921.5C 45.7813,935.001 49.2813,946.668 58.5,956.5C 67.6574,965.148 77.324,973.315 87.5,981C 92.3699,985.702 97.0366,990.535 101.5,995.5C 101.738,997.404 102.738,998.738 104.5,999.5C 114.299,1015.69 118.966,1033.36 118.5,1052.5C 119.169,1072.88 114.002,1091.55 103,1108.5C 86.2144,1127.66 65.0477,1135.82 39.5,1133C 30.3167,1131.66 21.65,1128.83 13.5,1124.5C 11.454,1123.64 10.1206,1122.14 9.5,1120C 10.125,1105.84 10.7917,1091.68 11.5,1077.5C 29.8685,1091.12 49.5352,1093.62 70.5,1085C 80.2982,1074.97 83.1316,1063.14 79,1049.5C 75.9696,1040.97 71.1363,1033.64 64.5,1027.5C 63.4154,1025.41 61.7488,1024.08 59.5,1023.5C 58.4154,1021.41 56.7488,1020.08 54.5,1019.5C 53.7377,1017.74 52.4044,1016.74 50.5,1016.5C 49.4154,1014.41 47.7488,1013.08 45.5,1012.5C 44.5,1012.17 43.8333,1011.5 43.5,1010.5C 43.0269,1009.09 42.0269,1008.43 40.5,1008.5C 19.0282,989.873 8.69486,966.206 9.5,937.5C 9.15466,919.055 13.3213,901.722 22,885.5C 38.8792,861.645 61.7125,853.145 90.5,860C 98.6196,861.523 105.62,865.023 111.5,870.5 Z"/></g>
<g><path style="opacity:0.983" fill="#009ddf" d="M 689.5,884.5 C 689.738,886.404 690.738,887.738 692.5,888.5C 702.009,905.539 706.342,923.872 705.5,943.5C 706.204,962.813 702.371,981.147 694,998.5C 682.933,1017.55 666.433,1028.71 644.5,1032C 635.173,1032.5 625.839,1032.67 616.5,1032.5C 616.5,1064.5 616.5,1096.5 616.5,1128.5C 605.833,1128.5 595.167,1128.5 584.5,1128.5C 583.167,1128.5 581.833,1128.5 580.5,1128.5C 580.5,1040.83 580.5,953.167 580.5,865.5C 603.028,861.863 625.694,860.696 648.5,862C 665.135,864.313 678.802,871.813 689.5,884.5 Z M 656.5,908.5 C 663.119,915.831 666.953,924.498 668,934.5C 669.865,948.967 668.198,962.967 663,976.5C 653.045,991.889 638.878,997.889 620.5,994.5C 620.5,994.167 620.5,993.833 620.5,993.5C 620.5,963.833 620.5,934.167 620.5,904.5C 628.806,903.462 637.139,903.295 645.5,904C 649.426,905.027 653.093,906.527 656.5,908.5 Z"/></g>
<g><path style="opacity:0.993" fill="#009cde" d="M 1497.5,881.5 C 1498.08,883.749 1499.41,885.415 1501.5,886.5C 1513.82,911.012 1516.65,936.678 1510,963.5C 1504.94,980.973 1494.61,994.307 1479,1003.5C 1479.08,1005.77 1480.24,1007.44 1482.5,1008.5C 1483.08,1010.75 1484.41,1012.42 1486.5,1013.5C 1501.22,1040.81 1511.72,1069.81 1518,1100.5C 1520.41,1109.72 1522.24,1119.06 1523.5,1128.5C 1512.17,1128.5 1500.83,1128.5 1489.5,1128.5C 1488.18,1128.67 1487.01,1128.34 1486,1127.5C 1480.55,1098.47 1471.88,1070.47 1460,1043.5C 1456.67,1038.01 1453.17,1032.68 1449.5,1027.5C 1449.03,1026.09 1448.03,1025.43 1446.5,1025.5C 1441.62,1020.54 1435.62,1018.54 1428.5,1019.5C 1428.5,1055.83 1428.5,1092.17 1428.5,1128.5C 1417.5,1128.5 1406.5,1128.5 1395.5,1128.5C 1394.5,1128.5 1393.5,1128.5 1392.5,1128.5C 1392.5,1040.83 1392.5,953.167 1392.5,865.5C 1415.36,861.849 1438.36,860.683 1461.5,862C 1476.02,864.09 1488.02,870.59 1497.5,881.5 Z M 1465.5,906.5 C 1471.6,913.26 1475.1,921.26 1476,930.5C 1478.17,944.655 1475.83,957.988 1469,970.5C 1459.25,982.242 1446.75,986.576 1431.5,983.5C 1431.33,956.831 1431.5,930.165 1432,903.5C 1443.61,900.149 1454.77,901.149 1465.5,906.5 Z"/></g>
<g><path style="opacity:0.98" fill="#009cde" d="M 309.5,866.5 C 308.335,926.999 308.168,987.665 309,1048.5C 309.934,1057.24 312.268,1065.57 316,1073.5C 317.049,1075.62 318.549,1077.28 320.5,1078.5C 334.064,1089.84 349.064,1092.01 365.5,1085C 370.16,1083.01 374.494,1080.51 378.5,1077.5C 379.5,1005.84 379.833,934.17 379.5,862.5C 391.833,862.5 404.167,862.5 416.5,862.5C 416.5,863.833 416.5,865.167 416.5,866.5C 416.5,953.833 416.5,1041.17 416.5,1128.5C 405.833,1128.5 395.167,1128.5 384.5,1128.5C 383.5,1128.5 382.5,1128.5 381.5,1128.5C 381.5,1124.83 381.5,1121.17 381.5,1117.5C 381.663,1115.14 381.497,1112.81 381,1110.5C 369.183,1122.33 355.016,1129.83 338.5,1133C 324.708,1134.76 312.041,1131.93 300.5,1124.5C 288.098,1114.38 280.265,1101.38 277,1085.5C 275.784,1079.54 274.784,1073.54 274,1067.5C 272.556,999.181 272.056,930.848 272.5,862.5C 284.833,862.5 297.167,862.5 309.5,862.5C 309.5,863.833 309.5,865.167 309.5,866.5 Z"/></g>
<g><path style="opacity:0.988" fill="#009dde" d="M 924.5,866.5 C 944.655,937.453 961.822,1009.12 976,1081.5C 979.214,1097.07 981.714,1112.73 983.5,1128.5C 971.833,1128.5 960.167,1128.5 948.5,1128.5C 947.178,1128.67 946.011,1128.34 945,1127.5C 941.714,1106.45 938.214,1085.45 934.5,1064.5C 934.5,1063.17 934.5,1061.83 934.5,1060.5C 913.167,1060.5 891.833,1060.5 870.5,1060.5C 866.401,1083.1 862.734,1105.76 859.5,1128.5C 849.5,1128.5 839.5,1128.5 829.5,1128.5C 828.167,1128.5 826.833,1128.5 825.5,1128.5C 840.317,1038.75 859.984,950.08 884.5,862.5C 897.517,862.168 910.517,862.501 923.5,863.5C 924.127,864.417 924.461,865.417 924.5,866.5 Z M 903.5,926.5 C 912.065,957.432 919.398,988.766 925.5,1020.5C 911.167,1020.5 896.833,1020.5 882.5,1020.5C 888.56,988.929 895.56,957.596 903.5,926.5 Z"/></g>
<g><path style="opacity:0.991" fill="#009ddf" d="M 1230.5,866.5 C 1231.04,875.491 1231.37,884.491 1231.5,893.5C 1231.5,897.167 1231.5,900.833 1231.5,904.5C 1209.66,904.169 1187.99,904.503 1166.5,905.5C 1165.5,926.994 1165.17,948.66 1165.5,970.5C 1167.1,970.768 1168.43,970.434 1169.5,969.5C 1188.83,969.5 1208.17,969.5 1227.5,969.5C 1227.5,970.833 1227.5,972.167 1227.5,973.5C 1227.5,985.833 1227.5,998.167 1227.5,1010.5C 1207.17,1010.5 1186.83,1010.5 1166.5,1010.5C 1166.33,1029.84 1166.5,1049.17 1167,1068.5C 1167.67,1073.52 1169.34,1078.19 1172,1082.5C 1172.67,1083.25 1173.5,1083.59 1174.5,1083.5C 1176.15,1084.93 1178.15,1085.76 1180.5,1086C 1199.16,1086.5 1217.83,1086.67 1236.5,1086.5C 1236.5,1087.5 1236.5,1088.5 1236.5,1089.5C 1234.92,1102.31 1233.92,1115.31 1233.5,1128.5C 1209.5,1128.67 1185.5,1128.5 1161.5,1128C 1155.96,1126.89 1150.96,1124.73 1146.5,1121.5C 1139.18,1115.21 1134.68,1107.21 1133,1097.5C 1132.09,1093.21 1131.42,1088.87 1131,1084.5C 1130.5,1010.5 1130.33,936.501 1130.5,862.5C 1163.83,862.5 1197.17,862.5 1230.5,862.5C 1230.5,863.833 1230.5,865.167 1230.5,866.5 Z"/></g>
<g><path style="opacity:0.678" fill="#050d12" d="M 309.5,866.5 C 310.5,866.5 311.5,866.5 312.5,866.5C 312.333,928.168 312.5,989.834 313,1051.5C 313.578,1061.06 316.078,1070.06 320.5,1078.5C 318.549,1077.28 317.049,1075.62 316,1073.5C 312.268,1065.57 309.934,1057.24 309,1048.5C 308.168,987.665 308.335,926.999 309.5,866.5 Z"/></g>
<g><path style="opacity:0.732" fill="#000000" d="M 416.5,866.5 C 417.5,866.5 418.5,866.5 419.5,866.5C 419.5,955.167 419.5,1043.83 419.5,1132.5C 407.833,1132.5 396.167,1132.5 384.5,1132.5C 384.5,1131.17 384.5,1129.83 384.5,1128.5C 395.167,1128.5 405.833,1128.5 416.5,1128.5C 416.5,1041.17 416.5,953.833 416.5,866.5 Z"/></g>
<g><path style="opacity:0.623" fill="#000204" d="M 924.5,866.5 C 925.5,866.5 926.5,866.5 927.5,866.5C 947.156,935.791 963.989,1005.79 978,1076.5C 981.751,1095.08 984.917,1113.75 987.5,1132.5C 974.5,1132.5 961.5,1132.5 948.5,1132.5C 948.5,1131.17 948.5,1129.83 948.5,1128.5C 960.167,1128.5 971.833,1128.5 983.5,1128.5C 981.714,1112.73 979.214,1097.07 976,1081.5C 961.822,1009.12 944.655,937.453 924.5,866.5 Z"/></g>
<g><path style="opacity:0.662" fill="#000000" d="M 1230.5,866.5 C 1231.5,866.5 1232.5,866.5 1233.5,866.5C 1234.46,880.836 1235.46,895.169 1236.5,909.5C 1214.17,909.5 1191.83,909.5 1169.5,909.5C 1169.5,929.5 1169.5,949.5 1169.5,969.5C 1168.5,969.5 1167.5,969.5 1166.5,969.5C 1166.5,948.167 1166.5,926.833 1166.5,905.5C 1188.5,905.5 1210.5,905.5 1232.5,905.5C 1232.82,901.298 1232.48,897.298 1231.5,893.5C 1231.37,884.491 1231.04,875.491 1230.5,866.5 Z"/></g>
<g><path style="opacity:0.827" fill="#0f2d3e" d="M 1794.5,880.5 C 1796.26,881.262 1797.26,882.596 1797.5,884.5C 1795.74,883.738 1794.74,882.404 1794.5,880.5 Z"/></g>
<g><path style="opacity:0.325" fill="#0f202b" d="M 1497.5,881.5 C 1499.59,882.585 1500.92,884.251 1501.5,886.5C 1499.41,885.415 1498.08,883.749 1497.5,881.5 Z"/></g>
<g><path style="opacity:0.639" fill="#0a1922" d="M 689.5,884.5 C 691.262,885.262 692.262,886.596 692.5,888.5C 690.738,887.738 689.738,886.404 689.5,884.5 Z"/></g>
<g><path style="opacity:0.661" fill="#02070a" d="M 692.5,888.5 C 700.259,897.695 705.092,908.362 707,920.5C 711.547,945.284 709.881,969.617 702,993.5C 689.923,1022.23 668.256,1036.56 637,1036.5C 631.489,1036.25 625.989,1035.92 620.5,1035.5C 620.5,1067.83 620.5,1100.17 620.5,1132.5C 608.5,1132.5 596.5,1132.5 584.5,1132.5C 584.5,1131.17 584.5,1129.83 584.5,1128.5C 595.167,1128.5 605.833,1128.5 616.5,1128.5C 616.5,1096.5 616.5,1064.5 616.5,1032.5C 625.839,1032.67 635.173,1032.5 644.5,1032C 666.433,1028.71 682.933,1017.55 694,998.5C 702.371,981.147 706.204,962.813 705.5,943.5C 706.342,923.872 702.009,905.539 692.5,888.5 Z"/></g>
<g><path style="opacity:0.646" fill="#020507" d="M 1501.5,886.5 C 1508.57,894.834 1513.07,904.5 1515,915.5C 1520.1,939.928 1517.1,963.262 1506,985.5C 1499.6,994.737 1491.76,1002.4 1482.5,1008.5C 1480.24,1007.44 1479.08,1005.77 1479,1003.5C 1494.61,994.307 1504.94,980.973 1510,963.5C 1516.65,936.678 1513.82,911.012 1501.5,886.5 Z"/></g>
<g><path style="opacity:0.65" fill="#010407" d="M 1797.5,884.5 C 1807.77,896.368 1814.94,910.034 1819,925.5C 1832.62,978.225 1831.29,1030.56 1815,1082.5C 1808.03,1101.46 1796.53,1116.96 1780.5,1129C 1773.21,1133.32 1765.54,1136.49 1757.5,1138.5C 1749.17,1138.5 1740.83,1138.5 1732.5,1138.5C 1721.83,1136.5 1712.5,1131.83 1704.5,1124.5C 1731.2,1140.12 1757.2,1138.96 1782.5,1121C 1798.28,1106.28 1809.12,1088.45 1815,1067.5C 1823.8,1032.64 1826.47,997.311 1823,961.5C 1820.75,933.594 1812.25,907.927 1797.5,884.5 Z"/></g>
<g><path style="opacity:0.652" fill="#020508" d="M 1764.5,904.5 C 1748.84,896.175 1734.68,898.175 1722,910.5C 1715.46,919.921 1710.79,930.254 1708,941.5C 1702.83,968.6 1701.17,995.933 1703,1023.5C 1703.56,1046.4 1709.39,1067.74 1720.5,1087.5C 1715.43,1082.38 1711.6,1076.38 1709,1069.5C 1701.16,1045.13 1697.66,1020.13 1698.5,994.5C 1697.65,971.696 1700.48,949.362 1707,927.5C 1710.81,915.675 1717.64,906.175 1727.5,899C 1738.28,894.197 1748.95,894.53 1759.5,900C 1761.62,901.049 1763.28,902.549 1764.5,904.5 Z"/></g>
<g><path style="opacity:0.725" fill="#020507" d="M 1465.5,906.5 C 1454.77,901.149 1443.61,900.149 1432,903.5C 1431.5,930.165 1431.33,956.831 1431.5,983.5C 1430.5,983.5 1429.5,983.5 1428.5,983.5C 1428.5,955.167 1428.5,926.833 1428.5,898.5C 1440.39,896.033 1451.73,897.533 1462.5,903C 1463.71,904.039 1464.71,905.206 1465.5,906.5 Z"/></g>
<g><path style="opacity:0.674" fill="#000102" d="M 656.5,908.5 C 653.093,906.527 649.426,905.027 645.5,904C 637.139,903.295 628.806,903.462 620.5,904.5C 620.5,934.167 620.5,963.833 620.5,993.5C 619.5,993.5 618.5,993.5 617.5,993.5C 617.5,962.5 617.5,931.5 617.5,900.5C 626.52,899.071 635.52,899.238 644.5,901C 649.374,902.262 653.374,904.762 656.5,908.5 Z"/></g>
<g><path style="opacity:0.643" fill="#02070a" d="M 111.5,870.5 C 112.482,871.141 113.482,871.807 114.5,872.5C 115.442,887.179 115.109,901.845 113.5,916.5C 99.3238,905.87 83.6571,902.37 66.5,906C 55.9686,911.55 50.9686,920.383 51.5,932.5C 51.4201,941.255 53.7534,949.255 58.5,956.5C 49.2813,946.668 45.7813,935.001 48,921.5C 49.382,912.449 54.2154,905.949 62.5,902C 79.8613,898.465 95.6946,901.965 110,912.5C 110.667,898.504 111.167,884.504 111.5,870.5 Z"/></g>
<g><path style="opacity:0.812" fill="#003045" d="M 617.5,900.5 C 617.5,931.5 617.5,962.5 617.5,993.5C 618.5,993.5 619.5,993.5 620.5,993.5C 620.5,993.833 620.5,994.167 620.5,994.5C 619.167,994.5 617.833,994.5 616.5,994.5C 616.168,962.996 616.502,931.662 617.5,900.5 Z"/></g>
<g><path style="opacity:0.937" fill="#0077aa" d="M 1231.5,893.5 C 1232.48,897.298 1232.82,901.298 1232.5,905.5C 1210.5,905.5 1188.5,905.5 1166.5,905.5C 1187.99,904.503 1209.66,904.169 1231.5,904.5C 1231.5,900.833 1231.5,897.167 1231.5,893.5 Z"/></g>
<g><path style="opacity:0.875" fill="#00587d" d="M 1166.5,905.5 C 1166.5,926.833 1166.5,948.167 1166.5,969.5C 1167.5,969.5 1168.5,969.5 1169.5,969.5C 1168.43,970.434 1167.1,970.768 1165.5,970.5C 1165.17,948.66 1165.5,926.994 1166.5,905.5 Z"/></g>
<g><path style="opacity:0.671" fill="#010407" d="M 903.5,926.5 C 895.56,957.596 888.56,988.929 882.5,1020.5C 880.801,1020.66 879.134,1020.49 877.5,1020C 884.561,985.31 892.561,950.81 901.5,916.5C 902.808,919.706 903.475,923.04 903.5,926.5 Z"/></g>
<g><path style="opacity:0.678" fill="#000000" d="M 1227.5,973.5 C 1228.83,973.5 1230.17,973.5 1231.5,973.5C 1231.5,987.167 1231.5,1000.83 1231.5,1014.5C 1210.83,1014.5 1190.17,1014.5 1169.5,1014.5C 1169.13,1034.53 1169.63,1054.53 1171,1074.5C 1171.88,1077.65 1173.05,1080.65 1174.5,1083.5C 1173.5,1083.59 1172.67,1083.25 1172,1082.5C 1169.34,1078.19 1167.67,1073.52 1167,1068.5C 1166.5,1049.17 1166.33,1029.84 1166.5,1010.5C 1186.83,1010.5 1207.17,1010.5 1227.5,1010.5C 1227.5,998.167 1227.5,985.833 1227.5,973.5 Z"/></g>
<g><path style="opacity:0.655" fill="#0c1e28" d="M 101.5,995.5 C 103.262,996.262 104.262,997.596 104.5,999.5C 102.738,998.738 101.738,997.404 101.5,995.5 Z"/></g>
<g><path style="opacity:0.646" fill="#020507" d="M 104.5,999.5 C 111.66,1007.48 116.493,1016.82 119,1027.5C 124.01,1049.34 123.343,1071 117,1092.5C 104.572,1123.9 81.4055,1138.73 47.5,1137C 37.2618,1136.36 27.5951,1133.69 18.5,1129C 16.3825,1127.95 14.7158,1126.45 13.5,1124.5C 21.65,1128.83 30.3167,1131.66 39.5,1133C 65.0477,1135.82 86.2144,1127.66 103,1108.5C 114.002,1091.55 119.169,1072.88 118.5,1052.5C 118.966,1033.36 114.299,1015.69 104.5,999.5 Z"/></g>
<g><path style="opacity:0.702" fill="#113244" d="M 40.5,1008.5 C 42.0269,1008.43 43.0269,1009.09 43.5,1010.5C 41.9731,1010.57 40.9731,1009.91 40.5,1008.5 Z"/></g>
<g><path style="opacity:0.302" fill="#0e1b24" d="M 1482.5,1008.5 C 1484.59,1009.58 1485.92,1011.25 1486.5,1013.5C 1484.41,1012.42 1483.08,1010.75 1482.5,1008.5 Z"/></g>
<g><path style="opacity:0.482" fill="#0b202b" d="M 45.5,1012.5 C 47.7488,1013.08 49.4154,1014.41 50.5,1016.5C 48.2512,1015.92 46.5846,1014.59 45.5,1012.5 Z"/></g>
<g><path style="opacity:0.765" fill="#0a2433" d="M 50.5,1016.5 C 52.4044,1016.74 53.7377,1017.74 54.5,1019.5C 52.5956,1019.26 51.2623,1018.26 50.5,1016.5 Z"/></g>
<g><path style="opacity:0.611" fill="#000203" d="M 1486.5,1013.5 C 1489.52,1016.37 1492.02,1019.7 1494,1023.5C 1510.09,1058.29 1521.26,1094.62 1527.5,1132.5C 1514.83,1132.5 1502.17,1132.5 1489.5,1132.5C 1489.5,1131.17 1489.5,1129.83 1489.5,1128.5C 1500.83,1128.5 1512.17,1128.5 1523.5,1128.5C 1522.24,1119.06 1520.41,1109.72 1518,1100.5C 1511.72,1069.81 1501.22,1040.81 1486.5,1013.5 Z"/></g>
<g><path style="opacity:0.715" fill="#000102" d="M 1446.5,1025.5 C 1441.66,1023.85 1436.66,1023.18 1431.5,1023.5C 1431.5,1059.83 1431.5,1096.17 1431.5,1132.5C 1419.5,1132.5 1407.5,1132.5 1395.5,1132.5C 1395.5,1131.17 1395.5,1129.83 1395.5,1128.5C 1406.5,1128.5 1417.5,1128.5 1428.5,1128.5C 1428.5,1092.17 1428.5,1055.83 1428.5,1019.5C 1435.62,1018.54 1441.62,1020.54 1446.5,1025.5 Z"/></g>
<g><path style="opacity:0.529" fill="#0c202b" d="M 54.5,1019.5 C 56.7488,1020.08 58.4154,1021.41 59.5,1023.5C 57.2512,1022.92 55.5846,1021.59 54.5,1019.5 Z"/></g>
<g><path style="opacity:0.906" fill="#10354a" d="M 59.5,1023.5 C 61.7488,1024.08 63.4154,1025.41 64.5,1027.5C 62.2512,1026.92 60.5846,1025.59 59.5,1023.5 Z"/></g>
<g><path style="opacity:0.796" fill="#113043" d="M 1446.5,1025.5 C 1448.03,1025.43 1449.03,1026.09 1449.5,1027.5C 1447.97,1027.57 1446.97,1026.91 1446.5,1025.5 Z"/></g>
<g><path style="opacity:0.657" fill="#000203" d="M 934.5,1064.5 C 914.489,1064.17 894.489,1064.5 874.5,1065.5C 870.345,1087.43 866.512,1109.43 863,1131.5C 851.581,1132.49 840.081,1132.82 828.5,1132.5C 828.433,1131.04 828.766,1129.71 829.5,1128.5C 839.5,1128.5 849.5,1128.5 859.5,1128.5C 862.734,1105.76 866.401,1083.1 870.5,1060.5C 891.833,1060.5 913.167,1060.5 934.5,1060.5C 934.5,1061.83 934.5,1063.17 934.5,1064.5 Z"/></g>
<g><path style="opacity:0.652" fill="#020406" d="M 1236.5,1089.5 C 1237.5,1089.5 1238.5,1089.5 1239.5,1089.5C 1239.15,1103.85 1238.48,1118.18 1237.5,1132.5C 1214.5,1132.67 1191.5,1132.5 1168.5,1132C 1159.66,1131.41 1152.33,1127.91 1146.5,1121.5C 1150.96,1124.73 1155.96,1126.89 1161.5,1128C 1185.5,1128.5 1209.5,1128.67 1233.5,1128.5C 1233.92,1115.31 1234.92,1102.31 1236.5,1089.5 Z"/></g>
<g><path style="opacity:0.641" fill="#010507" d="M 381.5,1117.5 C 368.614,1129.61 353.281,1136.27 335.5,1137.5C 323.875,1137.43 313.209,1134.26 303.5,1128C 302.29,1126.96 301.29,1125.79 300.5,1124.5C 312.041,1131.93 324.708,1134.76 338.5,1133C 355.016,1129.83 369.183,1122.33 381,1110.5C 381.497,1112.81 381.663,1115.14 381.5,1117.5 Z"/></g>
<g><path style="opacity:0.529" fill="#0d212d" d="M 1699.5,1120.5 C 1701.75,1121.08 1703.42,1122.41 1704.5,1124.5C 1702.25,1123.92 1700.58,1122.59 1699.5,1120.5 Z"/></g>
</svg>
