<?xml version="1.0" standalone="no"?>
<!DOCTYPE svg PUBLIC "-//W3C//DTD SVG 20010904//EN"
 "http://www.w3.org/TR/2001/REC-SVG-20010904/DTD/svg10.dtd">
<svg version="1.0" xmlns="http://www.w3.org/2000/svg"
 width="960.000000pt" height="960.000000pt" viewBox="0 0 960.000000 960.000000"
 preserveAspectRatio="xMidYMid meet">

<g transform="translate(0.000000,960.000000) scale(0.100000,-0.100000)"
fill="#000000" stroke="none">
<path d="M5850 7219 c-626 -55 -1187 -315 -1625 -754 -205 -204 -364 -423
-488 -671 -53 -107 -147 -331 -147 -352 0 -10 80 -42 105 -42 7 0 31 51 55
112 265 691 826 1226 1535 1463 839 280 1761 88 2435 -506 l89 -79 88 0 87 0
-59 61 c-399 407 -949 680 -1520 754 -151 20 -418 27 -555 14z"/>
<path d="M8670 6299 l0 -28 -1397 -4 c-1285 -2 -1405 -4 -1486 -20 -344 -69
-625 -215 -858 -447 -86 -86 -199 -222 -199 -240 0 -8 106 -80 117 -80 5 1 26
26 48 57 58 82 218 239 312 306 243 173 507 263 803 274 429 15 792 -128 1096
-431 216 -217 337 -439 406 -748 30 -136 33 -424 5 -558 -65 -309 -193 -547
-411 -766 -215 -214 -444 -340 -736 -406 -91 -20 -132 -23 -300 -23 -273 0
-433 36 -655 147 -108 54 -275 164 -275 180 0 6 7 16 15 22 12 9 -23 38 -187
153 -111 79 -203 141 -205 140 -2 -3 195 -437 203 -446 2 -2 12 3 22 12 10 10
22 17 25 17 4 0 43 -27 87 -60 636 -471 1517 -416 2084 129 242 234 405 525
470 843 94 455 -13 931 -293 1303 -131 175 -356 367 -541 460 -27 14 -50 28
-50 30 0 3 428 5 950 5 l950 0 0 -25 c0 -14 6 -25 13 -25 6 0 116 29 244 63
l232 63 -244 65 -245 66 0 -28z"/>
<path d="M8179 5922 c96 -154 241 -473 253 -552 2 -21 -2 -26 -24 -28 -16 -2
-28 -5 -28 -8 0 -9 213 -444 217 -441 2 2 10 93 18 203 8 109 16 219 19 243
l4 43 -37 -5 -36 -6 -29 87 c-44 133 -121 308 -189 428 l-62 109 -77 3 -78 3
49 -79z"/>
<path d="M2420 5573 c-8 -3 -27 -17 -42 -31 -23 -21 -28 -34 -28 -72 0 -37 5
-51 28 -72 36 -35 71 -43 115 -25 37 16 67 59 67 97 0 67 -79 125 -140 103z"/>
<path d="M430 4840 l0 -680 70 0 70 0 2 510 3 509 443 -509 c244 -281 450
-510 458 -510 12 0 14 103 14 680 l0 680 -65 0 -65 0 -2 -517 -3 -516 -449
516 c-246 285 -455 517 -462 517 -12 0 -14 -108 -14 -680z"/>
<path d="M1832 5184 c-93 -46 -142 -127 -142 -234 0 -120 65 -206 211 -284
121 -64 173 -103 197 -144 83 -148 -100 -296 -263 -214 -16 8 -48 30 -71 48
l-40 33 -38 -38 c-28 -29 -36 -44 -32 -59 9 -26 62 -67 134 -100 76 -36 211
-39 283 -6 132 61 199 214 157 358 -18 59 -113 151 -213 203 -155 81 -205 132
-205 208 0 143 181 181 311 67 l36 -31 43 44 42 43 -33 31 c-19 17 -65 47
-103 66 -61 31 -78 35 -145 35 -63 0 -87 -5 -129 -26z"/>
<path d="M3030 5188 c-90 -32 -152 -70 -214 -133 -194 -198 -195 -524 0 -719
196 -195 525 -199 728 -8 l38 37 -5 -105 c-6 -127 -19 -168 -69 -225 -81 -92
-237 -138 -391 -116 -110 15 -173 47 -245 127 l-59 64 -62 0 c-42 0 -61 -4
-61 -12 0 -25 62 -121 105 -164 112 -111 329 -165 524 -130 153 27 270 104
329 214 58 108 65 162 66 502 l1 305 -33 81 c-39 97 -87 155 -176 213 -105 69
-154 84 -291 88 -105 3 -128 1 -185 -19z m346 -143 c87 -43 153 -111 185 -193
19 -46 23 -77 24 -162 0 -99 -2 -109 -33 -171 -64 -131 -171 -199 -327 -207
-187 -10 -326 69 -396 223 -19 41 -23 69 -23 150 -1 92 1 105 31 167 75 159
217 243 392 233 60 -3 89 -11 147 -40z"/>
<path d="M5976 5194 c-178 -43 -337 -209 -375 -392 -38 -184 13 -357 143 -488
112 -112 216 -151 381 -141 144 8 266 67 336 165 l34 47 3 -112 3 -113 65 0
66 0 -4 313 c-4 261 -8 321 -22 367 -85 267 -357 420 -630 354z m241 -119 c64
-19 159 -88 196 -143 43 -61 59 -116 65 -220 5 -91 4 -94 -32 -167 -44 -90
-131 -187 -197 -220 -99 -51 -237 -50 -326 1 -217 128 -276 402 -129 603 98
133 269 192 423 146z"/>
<path d="M4230 5177 c-69 -20 -158 -84 -206 -150 -85 -115 -106 -241 -102
-607 l3 -255 63 -3 62 -3 0 263 c0 389 14 467 97 559 52 58 102 79 188 79 89
0 136 -21 196 -87 71 -80 72 -84 76 -470 l4 -343 65 0 64 0 0 254 c0 363 21
468 111 555 69 66 120 86 216 86 74 0 85 -3 124 -30 26 -18 53 -50 68 -80 l26
-49 3 -368 3 -368 65 0 65 0 -3 378 c-4 444 -5 450 -98 543 -92 93 -215 126
-359 95 -113 -24 -183 -73 -252 -176 l-28 -41 -26 51 c-35 69 -95 125 -163
151 -70 26 -199 34 -262 16z"/>
<path d="M2390 4665 l0 -505 65 0 65 0 -2 503 -3 502 -62 3 -63 3 0 -506z"/>
<path d="M8435 3917 c-3 -7 -21 -59 -41 -117 -177 -514 -549 -978 -1021 -1276
-976 -616 -2250 -475 -3068 341 -163 162 -367 422 -339 432 6 2 19 9 28 16 16
12 4 28 -110 157 -184 210 -195 222 -199 218 -2 -1 18 -109 44 -238 49 -245
47 -240 96 -225 17 5 30 -8 77 -77 187 -274 428 -510 718 -703 131 -87 388
-217 534 -270 628 -230 1305 -212 1923 51 601 255 1121 771 1369 1357 59 141
114 300 105 309 -3 3 -30 13 -59 22 -40 12 -54 12 -57 3z"/>
<path d="M2320 3583 l0 -33 101 0 100 0 -3 -194 c-3 -217 -7 -229 -74 -242
-45 -8 -76 1 -115 33 l-32 27 -19 -24 c-18 -23 -18 -23 3 -46 53 -56 187 -71
247 -27 56 40 61 67 62 311 l1 223 -135 2 -136 2 0 -32z"/>
<path d="M2890 3338 l0 -278 203 0 203 0 -2 28 -1 27 -167 3 -167 2 3 93 3 92
143 3 142 3 0 29 0 29 -142 3 -143 3 -3 88 -3 87 161 0 160 0 0 33 0 32 -195
0 -195 0 0 -277z"/>
<path d="M2702 3138 c-19 -19 -15 -66 7 -78 31 -16 49 -12 67 15 24 36 6 75
-34 75 -15 0 -33 -5 -40 -12z"/>
<path d="M3382 3138 c-20 -20 -15 -66 9 -78 30 -17 68 -4 75 24 9 36 -12 66
-44 66 -16 0 -33 -5 -40 -12z"/>
</g>
</svg>
