<?xml version="1.0" standalone="no"?>
<!DOCTYPE svg PUBLIC "-//W3C//DTD SVG 20010904//EN"
 "http://www.w3.org/TR/2001/REC-SVG-20010904/DTD/svg10.dtd">
<svg version="1.0" xmlns="http://www.w3.org/2000/svg"
 width="278.000000pt" height="300.000000pt" viewBox="0 0 278.000000 139.000000"
 preserveAspectRatio="xMidYMid meet">

<g transform="translate(0.000000,139.000000) scale(0.100000,-0.100000)"
fill="#000000" stroke="none">
<path d="M45 968 c-26 -15 -35 -28 -35 -54 0 -28 21 -45 89 -69 32 -12 57 -27
59 -36 5 -27 -26 -49 -68 -49 -30 0 -43 6 -58 27 -22 30 -38 27 -28 -5 13 -40
110 -57 154 -26 25 17 30 65 8 83 -7 6 -37 19 -67 29 -67 23 -83 46 -50 73 32
26 67 24 95 -6 26 -28 36 -31 36 -11 0 41 -89 70 -135 44z"/>
<path d="M284 970 c-37 -15 -54 -50 -54 -113 0 -52 3 -62 31 -89 28 -29 34
-30 84 -25 40 4 57 2 66 -9 6 -7 15 -11 21 -8 5 3 4 12 -4 21 -9 11 -12 41
-10 98 4 81 4 82 -28 108 -32 27 -67 33 -106 17z m93 -36 c23 -23 25 -31 21
-86 -5 -68 -21 -88 -72 -88 -50 0 -66 24 -66 101 0 59 3 70 22 83 33 23 65 20
95 -10z"/>
<path d="M484 966 c-3 -9 -4 -52 -2 -97 3 -74 6 -83 31 -105 33 -28 83 -32
126 -9 35 18 41 38 41 143 0 63 -3 83 -12 80 -9 -3 -14 -33 -16 -93 -2 -65 -7
-94 -19 -107 -20 -22 -71 -23 -101 -2 -20 14 -22 24 -22 104 0 83 -12 122 -26
86z"/>
<path d="M766 864 c-26 -64 -44 -119 -41 -123 8 -7 35 28 35 46 0 9 17 13 61
13 58 0 60 -1 70 -30 6 -16 17 -30 25 -30 11 0 9 11 -7 53 -51 128 -75 181
-85 184 -7 2 -32 -46 -58 -113z m99 -23 c6 -19 3 -21 -40 -21 -53 0 -54 3 -19
85 l16 38 18 -40 c10 -22 21 -50 25 -62z"/>
<path d="M980 859 l0 -121 62 4 c51 4 65 9 85 32 28 33 33 122 7 161 -17 26
-68 45 -121 45 l-33 0 0 -121z m131 62 c17 -21 20 -36 16 -75 -5 -61 -32 -86
-88 -86 l-39 0 0 98 0 97 45 -3 c34 -3 50 -10 66 -31z"/>
<path d="M1210 861 c0 -74 4 -121 10 -121 6 0 10 23 10 50 l0 50 55 0 c61 0
75 -13 75 -69 0 -17 5 -31 10 -31 16 0 12 86 -5 100 -14 12 -14 15 0 30 8 9
15 28 15 42 0 40 -31 60 -105 65 l-65 6 0 -122z m141 68 c21 -41 -23 -75 -87
-67 -25 3 -29 8 -32 36 -5 52 0 57 57 54 38 -3 54 -9 62 -23z"/>
<path d="M1472 955 c-30 -25 -32 -30 -32 -96 0 -61 3 -73 25 -94 36 -37 97
-35 136 4 26 26 29 36 29 90 0 75 -25 110 -86 118 -33 4 -45 1 -72 -22z m109
-14 c20 -16 24 -28 24 -79 0 -72 -21 -102 -69 -102 -54 0 -76 31 -76 105 0 79
66 121 121 76z"/>
<path d="M1697 973 c-4 -3 -7 -57 -7 -120 0 -92 3 -113 15 -113 11 0 15 19 17
93 l3 92 65 -92 c36 -51 71 -92 78 -93 9 0 12 30 12 120 0 145 -18 163 -22 23
l-3 -98 -73 98 c-40 53 -74 97 -75 97 -2 0 -7 -3 -10 -7z"/>
<path d="M1950 860 l0 -120 80 0 c47 0 80 4 80 10 0 6 -30 10 -70 10 l-70 0 0
45 0 45 60 0 c77 0 79 18 3 22 l-58 3 -3 37 -3 37 68 3 c93 4 86 22 -9 26
l-78 3 0 -121z"/>
<path d="M2220 695 l0 -275 23 5 c12 2 76 14 142 25 316 53 313 53 304 78 -7
19 -12 21 -29 12 -11 -6 -25 -8 -30 -5 -20 12 -9 31 23 43 45 16 55 15 60 -5
6 -27 13 10 37 192 11 88 23 170 26 183 l4 22 -280 0 -280 0 0 -275z m398 128
c7 -22 8 -41 3 -46 -12 -12 -31 0 -31 20 0 12 -7 14 -29 10 -21 -5 -31 -2 -35
10 -8 19 -9 17 29 31 47 16 51 15 63 -25z m-122 -90 c-9 -21 -25 -15 -32 12
-7 29 -5 28 -37 16 -20 -8 -27 -6 -31 6 -8 20 -8 20 40 37 l39 13 13 -36 c7
-19 10 -41 8 -48z m-138 10 c5 -16 13 -36 17 -45 5 -14 2 -18 -13 -18 -12 0
-23 9 -27 20 -5 15 -12 18 -36 13 -18 -3 -29 -1 -29 6 0 6 0 14 0 19 0 6 52
29 72 31 3 1 11 -11 16 -26z m311 -62 c9 -27 8 -36 -1 -43 -9 -5 -16 0 -22 15
-6 12 -11 23 -12 25 0 1 -13 -2 -27 -7 -20 -8 -27 -7 -31 6 -8 19 -8 19 34 37
39 16 43 15 59 -33z"/>
<path d="M799 637 c-41 -32 -26 -84 30 -105 17 -7 45 -17 61 -23 39 -15 42
-55 4 -69 -40 -16 -63 -12 -91 16 -27 28 -38 26 -29 -4 18 -55 142 -54 167 2
17 37 -3 61 -73 88 -65 25 -81 45 -58 73 24 29 110 12 110 -20 0 -8 5 -15 10
-15 17 0 11 36 -8 53 -22 20 -99 22 -123 4z"/>
<path d="M1006 603 c15 -27 36 -60 46 -75 11 -16 18 -44 18 -72 0 -25 5 -46
10 -46 6 0 10 20 10 45 0 35 9 60 41 112 23 38 43 71 46 76 2 4 -3 7 -11 7 -8
0 -29 -27 -48 -60 -18 -33 -35 -60 -38 -60 -3 0 -20 27 -38 60 -19 33 -40 60
-48 60 -11 0 -8 -11 12 -47z"/>
<path d="M1240 630 c-42 -42 -20 -82 59 -107 68 -23 85 -46 52 -74 -13 -10
-32 -19 -42 -19 -28 0 -69 22 -69 37 0 7 -7 13 -15 13 -22 0 -3 -42 26 -58 28
-15 102 -10 124 8 8 7 15 28 15 47 0 30 -5 36 -42 53 -24 11 -50 20 -59 20 -9
0 -24 9 -34 20 -17 19 -17 21 0 40 26 29 78 27 103 -5 23 -29 32 -32 32 -10 0
30 -38 55 -85 55 -32 0 -51 -6 -65 -20z"/>
<path d="M1430 640 c0 -5 18 -10 40 -10 l40 0 0 -110 c0 -67 4 -110 10 -110 6
0 10 43 10 110 l0 110 40 0 c22 0 40 5 40 10 0 6 -37 10 -90 10 -53 0 -90 -4
-90 -10z"/>
<path d="M1660 530 l0 -120 80 0 c64 0 80 3 80 15 0 12 -15 15 -71 15 l-70 0
3 43 3 42 58 3 c76 4 74 22 -3 22 l-60 0 0 40 0 40 70 0 c40 0 70 4 70 10 0 6
-33 10 -80 10 l-80 0 0 -120z"/>
<path d="M1872 533 c2 -82 7 -118 16 -121 9 -3 12 21 12 95 l1 98 42 -98 c22
-53 45 -96 50 -94 5 1 25 41 45 87 l37 85 5 -83 c7 -122 25 -102 28 34 2 105
1 115 -15 112 -11 -2 -31 -36 -57 -95 -21 -51 -42 -90 -46 -88 -4 2 -24 45
-45 95 -29 68 -42 90 -57 90 -17 0 -18 -8 -16 -117z"/>
</g>
</svg>
